<svg width="206" height="103" viewBox="0 0 206 103" fill="none" xmlns="http://www.w3.org/2000/svg">
<g filter="url(#filter0_ddd)">
<path d="M192.035 9.00001C192.035 6.23858 189.797 4 187.035 4H13.8236C11.0621 4 8.82358 6.23858 8.82358 9V78.7901C8.82358 81.5515 11.0621 83.7901 13.8236 83.7901H175.659L196.127 90.3438C196.937 90.6032 197.681 89.7968 197.356 89.0103L192.035 76.0994V9.00001Z" fill="white"/>
</g>
<path d="M26.15 26H21.78V19.33H26.15V20.07H22.61V22.22H26.08V22.96H22.61V25.26H26.15V26ZM27.8134 20.48C27.68 20.48 27.5634 20.4333 27.4634 20.34C27.3634 20.24 27.3134 20.12 27.3134 19.98C27.3134 19.84 27.3634 19.72 27.4634 19.62C27.5634 19.52 27.68 19.47 27.8134 19.47C27.9534 19.47 28.0734 19.52 28.1734 19.62C28.2734 19.72 28.3234 19.84 28.3234 19.98C28.3234 20.12 28.2734 20.24 28.1734 20.34C28.0734 20.4333 27.9534 20.48 27.8134 20.48ZM28.1934 26H27.4434V21.17H28.1934V26ZM33.6995 26H32.9495V25.32C32.7495 25.5467 32.4961 25.7367 32.1895 25.89C31.8895 26.0433 31.5695 26.12 31.2295 26.12C30.2028 26.12 29.6895 25.6067 29.6895 24.58V21.17H30.4395V24.35C30.4395 24.75 30.5295 25.0333 30.7095 25.2C30.8961 25.3667 31.1661 25.45 31.5195 25.45C31.7995 25.45 32.0695 25.38 32.3295 25.24C32.5961 25.1 32.8028 24.9267 32.9495 24.72V21.17H33.6995V26ZM36.7273 26.12C35.9073 26.12 35.2573 25.8667 34.7773 25.36L35.1673 24.82C35.3339 25.0133 35.5606 25.1767 35.8473 25.31C36.1406 25.4433 36.4439 25.51 36.7573 25.51C37.1173 25.51 37.3973 25.4333 37.5973 25.28C37.7973 25.1267 37.8973 24.9267 37.8973 24.68C37.8973 24.4667 37.7939 24.3 37.5873 24.18C37.3806 24.0533 37.1306 23.96 36.8373 23.9C36.5506 23.8333 36.2606 23.76 35.9673 23.68C35.6739 23.5933 35.4239 23.45 35.2173 23.25C35.0106 23.0433 34.9073 22.7733 34.9073 22.44C34.9073 22.0467 35.0673 21.7167 35.3873 21.45C35.7139 21.1833 36.1539 21.05 36.7073 21.05C37.4339 21.05 38.0306 21.2833 38.4973 21.75L38.1473 22.27C37.8073 21.8633 37.3273 21.66 36.7073 21.66C36.3806 21.66 36.1206 21.7333 35.9273 21.88C35.7339 22.02 35.6373 22.2 35.6373 22.42C35.6373 22.6133 35.7406 22.7667 35.9473 22.88C36.1539 22.9867 36.4006 23.0733 36.6873 23.14C36.9806 23.2 37.2739 23.2733 37.5673 23.36C37.8606 23.4467 38.1106 23.6 38.3173 23.82C38.5239 24.0333 38.6273 24.3133 38.6273 24.66C38.6273 25.0867 38.4606 25.4367 38.1273 25.71C37.7939 25.9833 37.3273 26.12 36.7273 26.12ZM46.4257 26H45.6757V22.72C45.6757 22.0533 45.379 21.72 44.7857 21.72C44.5457 21.72 44.3057 21.7933 44.0657 21.94C43.8257 22.0867 43.639 22.26 43.5057 22.46V26H42.7557V22.72C42.7557 22.0533 42.459 21.72 41.8657 21.72C41.6324 21.72 41.3957 21.7933 41.1557 21.94C40.9224 22.0867 40.7357 22.2633 40.5957 22.47V26H39.8457V21.17H40.5957V21.87C40.7157 21.6833 40.9257 21.5 41.2257 21.32C41.5257 21.14 41.8357 21.05 42.1557 21.05C42.509 21.05 42.7957 21.1333 43.0157 21.3C43.2357 21.4667 43.3824 21.6833 43.4557 21.95C43.6024 21.71 43.8257 21.5 44.1257 21.32C44.4257 21.14 44.7424 21.05 45.0757 21.05C45.9757 21.05 46.4257 21.5367 46.4257 22.51V26ZM51.7619 25.39C51.3285 25.8767 50.7519 26.12 50.0319 26.12C49.3119 26.12 48.7319 25.8767 48.2919 25.39C47.8585 24.9033 47.6419 24.3 47.6419 23.58C47.6419 22.86 47.8585 22.26 48.2919 21.78C48.7319 21.2933 49.3119 21.05 50.0319 21.05C50.7519 21.05 51.3285 21.2933 51.7619 21.78C52.2019 22.26 52.4219 22.86 52.4219 23.58C52.4219 24.3 52.2019 24.9033 51.7619 25.39ZM48.8519 24.91C49.1452 25.27 49.5385 25.45 50.0319 25.45C50.5252 25.45 50.9152 25.27 51.2019 24.91C51.4885 24.5433 51.6319 24.1 51.6319 23.58C51.6319 23.06 51.4885 22.62 51.2019 22.26C50.9152 21.9 50.5252 21.72 50.0319 21.72C49.5385 21.72 49.1452 21.9033 48.8519 22.27C48.5652 22.63 48.4219 23.0667 48.4219 23.58C48.4219 24.1 48.5652 24.5433 48.8519 24.91ZM57.8945 26H57.1445V25.28C56.7312 25.84 56.1879 26.12 55.5145 26.12C54.8745 26.12 54.3545 25.8933 53.9545 25.44C53.5612 24.98 53.3645 24.3633 53.3645 23.59C53.3645 22.8233 53.5612 22.21 53.9545 21.75C54.3545 21.2833 54.8745 21.05 55.5145 21.05C56.1812 21.05 56.7245 21.3333 57.1445 21.9V19.33H57.8945V26ZM55.6945 25.45C55.9879 25.45 56.2679 25.3767 56.5345 25.23C56.8012 25.0833 57.0045 24.9033 57.1445 24.69V22.5C57.0045 22.28 56.7979 22.0967 56.5245 21.95C56.2579 21.7967 55.9812 21.72 55.6945 21.72C55.2212 21.72 54.8445 21.8967 54.5645 22.25C54.2845 22.5967 54.1445 23.0433 54.1445 23.59C54.1445 24.1367 54.2845 24.5833 54.5645 24.93C54.8445 25.2767 55.2212 25.45 55.6945 25.45ZM62.3446 20.48C62.2113 20.48 62.0946 20.4333 61.9946 20.34C61.8946 20.24 61.8446 20.12 61.8446 19.98C61.8446 19.84 61.8946 19.72 61.9946 19.62C62.0946 19.52 62.2113 19.47 62.3446 19.47C62.4846 19.47 62.6046 19.52 62.7046 19.62C62.8046 19.72 62.8546 19.84 62.8546 19.98C62.8546 20.12 62.8046 20.24 62.7046 20.34C62.6046 20.4333 62.4846 20.48 62.3446 20.48ZM62.7246 26H61.9746V21.17H62.7246V26ZM64.9707 26H64.2207V21.17H64.9707V21.95C65.4174 21.3633 65.954 21.07 66.5807 21.07V21.84C66.4874 21.82 66.3874 21.81 66.2807 21.81C66.054 21.81 65.8074 21.89 65.5407 22.05C65.274 22.21 65.084 22.3867 64.9707 22.58V26ZM71.5315 26H70.7815V25.32C70.5815 25.5467 70.3282 25.7367 70.0215 25.89C69.7215 26.0433 69.4015 26.12 69.0615 26.12C68.0348 26.12 67.5215 25.6067 67.5215 24.58V21.17H68.2715V24.35C68.2715 24.75 68.3615 25.0333 68.5415 25.2C68.7282 25.3667 68.9982 25.45 69.3515 25.45C69.6315 25.45 69.9015 25.38 70.1615 25.24C70.4282 25.1 70.6348 24.9267 70.7815 24.72V21.17H71.5315V26ZM73.7793 26H73.0293V21.17H73.7793V21.95C74.226 21.3633 74.7626 21.07 75.3893 21.07V21.84C75.296 21.82 75.196 21.81 75.0893 21.81C74.8626 21.81 74.616 21.89 74.3493 22.05C74.0826 22.21 73.8926 22.3867 73.7793 22.58V26ZM78.5101 26.12C77.7901 26.12 77.2001 25.8867 76.7401 25.42C76.2801 24.9467 76.0501 24.3333 76.0501 23.58C76.0501 22.8733 76.2767 22.2767 76.7301 21.79C77.1834 21.2967 77.7501 21.05 78.4301 21.05C79.1434 21.05 79.7067 21.2967 80.1201 21.79C80.5401 22.2767 80.7501 22.8933 80.7501 23.64V23.83H76.8401C76.8734 24.3033 77.0467 24.7 77.3601 25.02C77.6734 25.34 78.0801 25.5 78.5801 25.5C79.1801 25.5 79.6767 25.2967 80.0701 24.89L80.4301 25.38C79.9367 25.8733 79.2967 26.12 78.5101 26.12ZM80.0101 23.28C80.0034 22.8667 79.8634 22.4967 79.5901 22.17C79.3167 21.8367 78.9267 21.67 78.4201 21.67C77.9401 21.67 77.5601 21.8333 77.2801 22.16C77.0067 22.4867 76.8601 22.86 76.8401 23.28H80.0101ZM88.553 26H87.803V25.32C87.603 25.5467 87.3496 25.7367 87.043 25.89C86.743 26.0433 86.423 26.12 86.083 26.12C85.0563 26.12 84.543 25.6067 84.543 24.58V21.17H85.293V24.35C85.293 24.75 85.383 25.0333 85.563 25.2C85.7496 25.3667 86.0196 25.45 86.373 25.45C86.653 25.45 86.923 25.38 87.183 25.24C87.4496 25.1 87.6563 24.9267 87.803 24.72V21.17H88.553V26ZM90.8008 26H90.0508V19.33H90.8008V26ZM93.0469 26H92.2969V19.33H93.0469V26ZM98.313 26H97.563V25.45C97.1563 25.8967 96.623 26.12 95.963 26.12C95.5163 26.12 95.123 25.9767 94.783 25.69C94.443 25.4033 94.273 25.0133 94.273 24.52C94.273 24.0133 94.4396 23.6233 94.773 23.35C95.113 23.07 95.5096 22.93 95.963 22.93C96.6496 22.93 97.183 23.15 97.563 23.59V22.72C97.563 22.4 97.4496 22.15 97.223 21.97C96.9963 21.79 96.703 21.7 96.343 21.7C95.7763 21.7 95.283 21.9233 94.863 22.37L94.513 21.85C95.0263 21.3167 95.6696 21.05 96.443 21.05C96.9963 21.05 97.4463 21.1833 97.793 21.45C98.1396 21.7167 98.313 22.1267 98.313 22.68V26ZM96.233 25.58C96.833 25.58 97.2763 25.38 97.563 24.98V24.07C97.2763 23.67 96.833 23.47 96.233 23.47C95.8863 23.47 95.5996 23.57 95.373 23.77C95.153 23.9633 95.043 24.2167 95.043 24.53C95.043 24.8367 95.153 25.09 95.373 25.29C95.5996 25.4833 95.8863 25.58 96.233 25.58ZM106.396 26H105.646V22.72C105.646 22.0533 105.35 21.72 104.756 21.72C104.516 21.72 104.276 21.7933 104.036 21.94C103.796 22.0867 103.61 22.26 103.476 22.46V26H102.726V22.72C102.726 22.0533 102.43 21.72 101.836 21.72C101.603 21.72 101.366 21.7933 101.126 21.94C100.893 22.0867 100.706 22.2633 100.566 22.47V26H99.8164V21.17H100.566V21.87C100.686 21.6833 100.896 21.5 101.196 21.32C101.496 21.14 101.806 21.05 102.126 21.05C102.48 21.05 102.766 21.1333 102.986 21.3C103.206 21.4667 103.353 21.6833 103.426 21.95C103.573 21.71 103.796 21.5 104.096 21.32C104.396 21.14 104.713 21.05 105.046 21.05C105.946 21.05 106.396 21.5367 106.396 22.51V26ZM110.023 26.12C109.309 26.12 108.729 25.88 108.283 25.4C107.836 24.9133 107.613 24.3067 107.613 23.58C107.613 22.8533 107.836 22.25 108.283 21.77C108.729 21.29 109.309 21.05 110.023 21.05C110.769 21.05 111.359 21.33 111.793 21.89L111.293 22.35C110.986 21.93 110.576 21.72 110.063 21.72C109.556 21.72 109.149 21.8933 108.843 22.24C108.543 22.5867 108.393 23.0333 108.393 23.58C108.393 24.1267 108.543 24.5767 108.843 24.93C109.149 25.2767 109.556 25.45 110.063 25.45C110.569 25.45 110.979 25.24 111.293 24.82L111.793 25.28C111.359 25.84 110.769 26.12 110.023 26.12ZM116.684 25.39C116.25 25.8767 115.674 26.12 114.954 26.12C114.234 26.12 113.654 25.8767 113.214 25.39C112.78 24.9033 112.564 24.3 112.564 23.58C112.564 22.86 112.78 22.26 113.214 21.78C113.654 21.2933 114.234 21.05 114.954 21.05C115.674 21.05 116.25 21.2933 116.684 21.78C117.124 22.26 117.344 22.86 117.344 23.58C117.344 24.3 117.124 24.9033 116.684 25.39ZM113.774 24.91C114.067 25.27 114.46 25.45 114.954 25.45C115.447 25.45 115.837 25.27 116.124 24.91C116.41 24.5433 116.554 24.1 116.554 23.58C116.554 23.06 116.41 22.62 116.124 22.26C115.837 21.9 115.447 21.72 114.954 21.72C114.46 21.72 114.067 21.9033 113.774 22.27C113.487 22.63 113.344 23.0667 113.344 23.58C113.344 24.1 113.487 24.5433 113.774 24.91ZM123.325 26.12C122.605 26.12 122.015 25.8867 121.555 25.42C121.095 24.9467 120.865 24.3333 120.865 23.58C120.865 22.8733 121.091 22.2767 121.545 21.79C121.998 21.2967 122.565 21.05 123.245 21.05C123.958 21.05 124.521 21.2967 124.935 21.79C125.355 22.2767 125.565 22.8933 125.565 23.64V23.83H121.655C121.688 24.3033 121.861 24.7 122.175 25.02C122.488 25.34 122.895 25.5 123.395 25.5C123.995 25.5 124.491 25.2967 124.885 24.89L125.245 25.38C124.751 25.8733 124.111 26.12 123.325 26.12ZM124.825 23.28C124.818 22.8667 124.678 22.4967 124.405 22.17C124.131 21.8367 123.741 21.67 123.235 21.67C122.755 21.67 122.375 21.8333 122.095 22.16C121.821 22.4867 121.675 22.86 121.655 23.28H124.825ZM127.149 20.48C127.016 20.48 126.899 20.4333 126.799 20.34C126.699 20.24 126.649 20.12 126.649 19.98C126.649 19.84 126.699 19.72 126.799 19.62C126.899 19.52 127.016 19.47 127.149 19.47C127.289 19.47 127.409 19.52 127.509 19.62C127.609 19.72 127.659 19.84 127.659 19.98C127.659 20.12 127.609 20.24 127.509 20.34C127.409 20.4333 127.289 20.48 127.149 20.48ZM127.529 26H126.779V21.17H127.529V26ZM133.035 26H132.285V25.32C132.085 25.5467 131.832 25.7367 131.525 25.89C131.225 26.0433 130.905 26.12 130.565 26.12C129.539 26.12 129.025 25.6067 129.025 24.58V21.17H129.775V24.35C129.775 24.75 129.865 25.0333 130.045 25.2C130.232 25.3667 130.502 25.45 130.855 25.45C131.135 25.45 131.405 25.38 131.665 25.24C131.932 25.1 132.139 24.9267 132.285 24.72V21.17H133.035V26ZM136.063 26.12C135.243 26.12 134.593 25.8667 134.113 25.36L134.503 24.82C134.67 25.0133 134.897 25.1767 135.183 25.31C135.477 25.4433 135.78 25.51 136.093 25.51C136.453 25.51 136.733 25.4333 136.933 25.28C137.133 25.1267 137.233 24.9267 137.233 24.68C137.233 24.4667 137.13 24.3 136.923 24.18C136.717 24.0533 136.467 23.96 136.173 23.9C135.887 23.8333 135.597 23.76 135.303 23.68C135.01 23.5933 134.76 23.45 134.553 23.25C134.347 23.0433 134.243 22.7733 134.243 22.44C134.243 22.0467 134.403 21.7167 134.723 21.45C135.05 21.1833 135.49 21.05 136.043 21.05C136.77 21.05 137.367 21.2833 137.833 21.75L137.483 22.27C137.143 21.8633 136.663 21.66 136.043 21.66C135.717 21.66 135.457 21.7333 135.263 21.88C135.07 22.02 134.973 22.2 134.973 22.42C134.973 22.6133 135.077 22.7667 135.283 22.88C135.49 22.9867 135.737 23.0733 136.023 23.14C136.317 23.2 136.61 23.2733 136.903 23.36C137.197 23.4467 137.447 23.6 137.653 23.82C137.86 24.0333 137.963 24.3133 137.963 24.66C137.963 25.0867 137.797 25.4367 137.463 25.71C137.13 25.9833 136.663 26.12 136.063 26.12ZM145.762 26H145.012V22.72C145.012 22.0533 144.715 21.72 144.122 21.72C143.882 21.72 143.642 21.7933 143.402 21.94C143.162 22.0867 142.975 22.26 142.842 22.46V26H142.092V22.72C142.092 22.0533 141.795 21.72 141.202 21.72C140.968 21.72 140.732 21.7933 140.492 21.94C140.258 22.0867 140.072 22.2633 139.932 22.47V26H139.182V21.17H139.932V21.87C140.052 21.6833 140.262 21.5 140.562 21.32C140.862 21.14 141.172 21.05 141.492 21.05C141.845 21.05 142.132 21.1333 142.352 21.3C142.572 21.4667 142.718 21.6833 142.792 21.95C142.938 21.71 143.162 21.5 143.462 21.32C143.762 21.14 144.078 21.05 144.412 21.05C145.312 21.05 145.762 21.5367 145.762 22.51V26ZM151.098 25.39C150.664 25.8767 150.088 26.12 149.368 26.12C148.648 26.12 148.068 25.8767 147.628 25.39C147.194 24.9033 146.978 24.3 146.978 23.58C146.978 22.86 147.194 22.26 147.628 21.78C148.068 21.2933 148.648 21.05 149.368 21.05C150.088 21.05 150.664 21.2933 151.098 21.78C151.538 22.26 151.758 22.86 151.758 23.58C151.758 24.3 151.538 24.9033 151.098 25.39ZM148.188 24.91C148.481 25.27 148.874 25.45 149.368 25.45C149.861 25.45 150.251 25.27 150.538 24.91C150.824 24.5433 150.968 24.1 150.968 23.58C150.968 23.06 150.824 22.62 150.538 22.26C150.251 21.9 149.861 21.72 149.368 21.72C148.874 21.72 148.481 21.9033 148.188 22.27C147.901 22.63 147.758 23.0667 147.758 23.58C147.758 24.1 147.901 24.5433 148.188 24.91ZM157.23 26H156.48V25.28C156.067 25.84 155.524 26.12 154.85 26.12C154.21 26.12 153.69 25.8933 153.29 25.44C152.897 24.98 152.7 24.3633 152.7 23.59C152.7 22.8233 152.897 22.21 153.29 21.75C153.69 21.2833 154.21 21.05 154.85 21.05C155.517 21.05 156.06 21.3333 156.48 21.9V19.33H157.23V26ZM155.03 25.45C155.324 25.45 155.604 25.3767 155.87 25.23C156.137 25.0833 156.34 24.9033 156.48 24.69V22.5C156.34 22.28 156.134 22.0967 155.86 21.95C155.594 21.7967 155.317 21.72 155.03 21.72C154.557 21.72 154.18 21.8967 153.9 22.25C153.62 22.5967 153.48 23.0433 153.48 23.59C153.48 24.1367 153.62 24.5833 153.9 24.93C154.18 25.2767 154.557 25.45 155.03 25.45ZM28.33 41H27.58V37.72C27.58 37.0533 27.2833 36.72 26.69 36.72C26.45 36.72 26.21 36.7933 25.97 36.94C25.73 37.0867 25.5433 37.26 25.41 37.46V41H24.66V37.72C24.66 37.0533 24.3633 36.72 23.77 36.72C23.5367 36.72 23.3 36.7933 23.06 36.94C22.8267 37.0867 22.64 37.2633 22.5 37.47V41H21.75V36.17H22.5V36.87C22.62 36.6833 22.83 36.5 23.13 36.32C23.43 36.14 23.74 36.05 24.06 36.05C24.4133 36.05 24.7 36.1333 24.92 36.3C25.14 36.4667 25.2867 36.6833 25.36 36.95C25.5067 36.71 25.73 36.5 26.03 36.32C26.33 36.14 26.6467 36.05 26.98 36.05C27.88 36.05 28.33 36.5367 28.33 37.51V41ZM33.6662 40.39C33.2328 40.8767 32.6562 41.12 31.9362 41.12C31.2162 41.12 30.6362 40.8767 30.1962 40.39C29.7628 39.9033 29.5462 39.3 29.5462 38.58C29.5462 37.86 29.7628 37.26 30.1962 36.78C30.6362 36.2933 31.2162 36.05 31.9362 36.05C32.6562 36.05 33.2328 36.2933 33.6662 36.78C34.1062 37.26 34.3262 37.86 34.3262 38.58C34.3262 39.3 34.1062 39.9033 33.6662 40.39ZM30.7562 39.91C31.0495 40.27 31.4428 40.45 31.9362 40.45C32.4295 40.45 32.8195 40.27 33.1062 39.91C33.3928 39.5433 33.5362 39.1 33.5362 38.58C33.5362 38.06 33.3928 37.62 33.1062 37.26C32.8195 36.9 32.4295 36.72 31.9362 36.72C31.4428 36.72 31.0495 36.9033 30.7562 37.27C30.4695 37.63 30.3262 38.0667 30.3262 38.58C30.3262 39.1 30.4695 39.5433 30.7562 39.91ZM36.2988 41H35.5488V34.33H36.2988V41ZM38.5449 41H37.7949V34.33H38.5449V41ZM40.411 35.48C40.2777 35.48 40.161 35.4333 40.061 35.34C39.961 35.24 39.911 35.12 39.911 34.98C39.911 34.84 39.961 34.72 40.061 34.62C40.161 34.52 40.2777 34.47 40.411 34.47C40.551 34.47 40.671 34.52 40.771 34.62C40.871 34.72 40.921 34.84 40.921 34.98C40.921 35.12 40.871 35.24 40.771 35.34C40.671 35.4333 40.551 35.48 40.411 35.48ZM40.791 41H40.041V36.17H40.791V41ZM43.5071 41.12C43.1538 41.12 42.8871 41.0233 42.7071 40.83C42.5271 40.6367 42.4371 40.3567 42.4371 39.99V36.83H41.6371V36.17H42.4371V34.85H43.1871V36.17H44.1671V36.83H43.1871V39.83C43.1871 40.0167 43.2271 40.1667 43.3071 40.28C43.3938 40.3933 43.5171 40.45 43.6771 40.45C43.8971 40.45 44.0671 40.3833 44.1871 40.25L44.4071 40.81C44.1871 41.0167 43.8871 41.12 43.5071 41.12ZM49.9847 41.12C49.2647 41.12 48.6747 40.8867 48.2147 40.42C47.7547 39.9467 47.5247 39.3333 47.5247 38.58C47.5247 37.8733 47.7514 37.2767 48.2047 36.79C48.658 36.2967 49.2247 36.05 49.9047 36.05C50.618 36.05 51.1814 36.2967 51.5947 36.79C52.0147 37.2767 52.2247 37.8933 52.2247 38.64V38.83H48.3147C48.348 39.3033 48.5214 39.7 48.8347 40.02C49.148 40.34 49.5547 40.5 50.0547 40.5C50.6547 40.5 51.1514 40.2967 51.5447 39.89L51.9047 40.38C51.4114 40.8733 50.7714 41.12 49.9847 41.12ZM51.4847 38.28C51.478 37.8667 51.338 37.4967 51.0647 37.17C50.7914 36.8367 50.4014 36.67 49.8947 36.67C49.4147 36.67 49.0347 36.8333 48.7547 37.16C48.4814 37.4867 48.3347 37.86 48.3147 38.28H51.4847ZM57.4395 41H56.5695L55.1195 39.02L53.6695 41H52.8095L54.6595 38.52L52.9095 36.17H53.7795L55.1195 38.01L56.4595 36.17H57.3295L55.5795 38.52L57.4395 41ZM62.9009 40.45C63.1942 40.45 63.4742 40.3767 63.7409 40.23C64.0142 40.0767 64.2142 39.89 64.3409 39.67V37.49C64.2142 37.2767 64.0142 37.0967 63.7409 36.95C63.4742 36.7967 63.1942 36.72 62.9009 36.72C62.4275 36.72 62.0509 36.8933 61.7709 37.24C61.4975 37.5867 61.3609 38.0333 61.3609 38.58C61.3609 39.1267 61.4975 39.5767 61.7709 39.93C62.0509 40.2767 62.4275 40.45 62.9009 40.45ZM62.7209 41.12C62.0809 41.12 61.5609 40.89 61.1609 40.43C60.7675 39.97 60.5709 39.3533 60.5709 38.58C60.5709 37.8067 60.7675 37.1933 61.1609 36.74C61.5609 36.28 62.0809 36.05 62.7209 36.05C63.0542 36.05 63.3642 36.1267 63.6509 36.28C63.9375 36.4333 64.1675 36.6367 64.3409 36.89V36.17H65.0909V42.84H64.3409V40.27C63.9342 40.8367 63.3942 41.12 62.7209 41.12ZM70.6135 41H69.8635V40.32C69.6635 40.5467 69.4102 40.7367 69.1035 40.89C68.8035 41.0433 68.4835 41.12 68.1435 41.12C67.1168 41.12 66.6035 40.6067 66.6035 39.58V36.17H67.3535V39.35C67.3535 39.75 67.4435 40.0333 67.6235 40.2C67.8102 40.3667 68.0802 40.45 68.4335 40.45C68.7135 40.45 68.9835 40.38 69.2435 40.24C69.5102 40.1 69.7168 39.9267 69.8635 39.72V36.17H70.6135V41ZM72.4813 35.48C72.348 35.48 72.2313 35.4333 72.1313 35.34C72.0313 35.24 71.9813 35.12 71.9813 34.98C71.9813 34.84 72.0313 34.72 72.1313 34.62C72.2313 34.52 72.348 34.47 72.4813 34.47C72.6213 34.47 72.7413 34.52 72.8413 34.62C72.9413 34.72 72.9913 34.84 72.9913 34.98C72.9913 35.12 72.9413 35.24 72.8413 35.34C72.7413 35.4333 72.6213 35.48 72.4813 35.48ZM72.8613 41H72.1113V36.17H72.8613V41ZM75.1474 40.94C75.0408 41.0467 74.9108 41.1 74.7574 41.1C74.6041 41.1 74.4741 41.0467 74.3674 40.94C74.2608 40.8333 74.2074 40.7033 74.2074 40.55C74.2074 40.3967 74.2608 40.2667 74.3674 40.16C74.4741 40.0533 74.6041 40 74.7574 40C74.9108 40 75.0408 40.0533 75.1474 40.16C75.2541 40.2667 75.3074 40.3967 75.3074 40.55C75.3074 40.7033 75.2541 40.8333 75.1474 40.94ZM85.8002 41H84.9702V35.51L82.7002 41H82.3602L80.1002 35.51V41H79.2702V34.33H80.4602L82.5302 39.35L84.6102 34.33H85.8002V41ZM91.1662 40.39C90.7328 40.8767 90.1562 41.12 89.4362 41.12C88.7162 41.12 88.1362 40.8767 87.6962 40.39C87.2628 39.9033 87.0462 39.3 87.0462 38.58C87.0462 37.86 87.2628 37.26 87.6962 36.78C88.1362 36.2933 88.7162 36.05 89.4362 36.05C90.1562 36.05 90.7328 36.2933 91.1662 36.78C91.6062 37.26 91.8262 37.86 91.8262 38.58C91.8262 39.3 91.6062 39.9033 91.1662 40.39ZM88.2562 39.91C88.5495 40.27 88.9428 40.45 89.4362 40.45C89.9295 40.45 90.3195 40.27 90.6062 39.91C90.8928 39.5433 91.0362 39.1 91.0362 38.58C91.0362 38.06 90.8928 37.62 90.6062 37.26C90.3195 36.9 89.9295 36.72 89.4362 36.72C88.9428 36.72 88.5495 36.9033 88.2562 37.27C87.9695 37.63 87.8262 38.0667 87.8262 38.58C87.8262 39.1 87.9695 39.5433 88.2562 39.91ZM93.7988 41H93.0488V34.33H93.7988V41ZM96.0449 41H95.2949V34.33H96.0449V41ZM97.911 35.48C97.7777 35.48 97.661 35.4333 97.561 35.34C97.461 35.24 97.411 35.12 97.411 34.98C97.411 34.84 97.461 34.72 97.561 34.62C97.661 34.52 97.7777 34.47 97.911 34.47C98.051 34.47 98.171 34.52 98.271 34.62C98.371 34.72 98.421 34.84 98.421 34.98C98.421 35.12 98.371 35.24 98.271 35.34C98.171 35.4333 98.051 35.48 97.911 35.48ZM98.291 41H97.541V36.17H98.291V41ZM101.007 41.12C100.654 41.12 100.387 41.0233 100.207 40.83C100.027 40.6367 99.9371 40.3567 99.9371 39.99V36.83H99.1371V36.17H99.9371V34.85H100.687V36.17H101.667V36.83H100.687V39.83C100.687 40.0167 100.727 40.1667 100.807 40.28C100.894 40.3933 101.017 40.45 101.177 40.45C101.397 40.45 101.567 40.3833 101.687 40.25L101.907 40.81C101.687 41.0167 101.387 41.12 101.007 41.12ZM107.415 41H106.595L104.585 36.17H105.395L107.005 40.13L108.605 36.17H109.425L107.415 41ZM112.387 41.12C111.667 41.12 111.077 40.8867 110.617 40.42C110.157 39.9467 109.927 39.3333 109.927 38.58C109.927 37.8733 110.154 37.2767 110.607 36.79C111.06 36.2967 111.627 36.05 112.307 36.05C113.02 36.05 113.584 36.2967 113.997 36.79C114.417 37.2767 114.627 37.8933 114.627 38.64V38.83H110.717C110.75 39.3033 110.924 39.7 111.237 40.02C111.55 40.34 111.957 40.5 112.457 40.5C113.057 40.5 113.554 40.2967 113.947 39.89L114.307 40.38C113.814 40.8733 113.174 41.12 112.387 41.12ZM113.887 38.28C113.88 37.8667 113.74 37.4967 113.467 37.17C113.194 36.8367 112.804 36.67 112.297 36.67C111.817 36.67 111.437 36.8333 111.157 37.16C110.884 37.4867 110.737 37.86 110.717 38.28H113.887ZM119.852 41H119.102V37.84C119.102 37.4333 119.008 37.1467 118.822 36.98C118.635 36.8067 118.368 36.72 118.022 36.72C117.742 36.72 117.468 36.7933 117.202 36.94C116.942 37.0867 116.738 37.2633 116.592 37.47V41H115.842V36.17H116.592V36.87C116.778 36.65 117.028 36.46 117.342 36.3C117.655 36.1333 117.978 36.05 118.312 36.05C119.338 36.05 119.852 36.57 119.852 37.61V41ZM121.72 35.48C121.586 35.48 121.47 35.4333 121.37 35.34C121.27 35.24 121.22 35.12 121.22 34.98C121.22 34.84 121.27 34.72 121.37 34.62C121.47 34.52 121.586 34.47 121.72 34.47C121.86 34.47 121.98 34.52 122.08 34.62C122.18 34.72 122.23 34.84 122.23 34.98C122.23 35.12 122.18 35.24 122.08 35.34C121.98 35.4333 121.86 35.48 121.72 35.48ZM122.1 41H121.35V36.17H122.1V41ZM127.366 41H126.616V40.45C126.209 40.8967 125.676 41.12 125.016 41.12C124.569 41.12 124.176 40.9767 123.836 40.69C123.496 40.4033 123.326 40.0133 123.326 39.52C123.326 39.0133 123.492 38.6233 123.826 38.35C124.166 38.07 124.562 37.93 125.016 37.93C125.702 37.93 126.236 38.15 126.616 38.59V37.72C126.616 37.4 126.502 37.15 126.276 36.97C126.049 36.79 125.756 36.7 125.396 36.7C124.829 36.7 124.336 36.9233 123.916 37.37L123.566 36.85C124.079 36.3167 124.722 36.05 125.496 36.05C126.049 36.05 126.499 36.1833 126.846 36.45C127.192 36.7167 127.366 37.1267 127.366 37.68V41ZM125.286 40.58C125.886 40.58 126.329 40.38 126.616 39.98V39.07C126.329 38.67 125.886 38.47 125.286 38.47C124.939 38.47 124.652 38.57 124.426 38.77C124.206 38.9633 124.096 39.2167 124.096 39.53C124.096 39.8367 124.206 40.09 124.426 40.29C124.652 40.4833 124.939 40.58 125.286 40.58ZM135.449 41H134.699V37.72C134.699 37.0533 134.402 36.72 133.809 36.72C133.569 36.72 133.329 36.7933 133.089 36.94C132.849 37.0867 132.662 37.26 132.529 37.46V41H131.779V37.72C131.779 37.0533 131.482 36.72 130.889 36.72C130.656 36.72 130.419 36.7933 130.179 36.94C129.946 37.0867 129.759 37.2633 129.619 37.47V41H128.869V36.17H129.619V36.87C129.739 36.6833 129.949 36.5 130.249 36.32C130.549 36.14 130.859 36.05 131.179 36.05C131.532 36.05 131.819 36.1333 132.039 36.3C132.259 36.4667 132.406 36.6833 132.479 36.95C132.626 36.71 132.849 36.5 133.149 36.32C133.449 36.14 133.766 36.05 134.099 36.05C134.999 36.05 135.449 36.5367 135.449 37.51V41ZM140.743 41.12C140.39 41.12 140.123 41.0233 139.943 40.83C139.763 40.6367 139.673 40.3567 139.673 39.99V36.83H138.873V36.17H139.673V34.85H140.423V36.17H141.403V36.83H140.423V39.83C140.423 40.0167 140.463 40.1667 140.543 40.28C140.63 40.3933 140.753 40.45 140.913 40.45C141.133 40.45 141.303 40.3833 141.423 40.25L141.643 40.81C141.423 41.0167 141.123 41.12 140.743 41.12ZM144.643 41.12C143.923 41.12 143.333 40.8867 142.873 40.42C142.413 39.9467 142.183 39.3333 142.183 38.58C142.183 37.8733 142.41 37.2767 142.863 36.79C143.316 36.2967 143.883 36.05 144.563 36.05C145.276 36.05 145.84 36.2967 146.253 36.79C146.673 37.2767 146.883 37.8933 146.883 38.64V38.83H142.973C143.006 39.3033 143.18 39.7 143.493 40.02C143.806 40.34 144.213 40.5 144.713 40.5C145.313 40.5 145.81 40.2967 146.203 39.89L146.563 40.38C146.07 40.8733 145.43 41.12 144.643 41.12ZM146.143 38.28C146.136 37.8667 145.996 37.4967 145.723 37.17C145.45 36.8367 145.06 36.67 144.553 36.67C144.073 36.67 143.693 36.8333 143.413 37.16C143.14 37.4867 142.993 37.86 142.973 38.28H146.143ZM154.678 41H153.928V37.72C153.928 37.0533 153.631 36.72 153.038 36.72C152.798 36.72 152.558 36.7933 152.318 36.94C152.078 37.0867 151.891 37.26 151.758 37.46V41H151.008V37.72C151.008 37.0533 150.711 36.72 150.118 36.72C149.884 36.72 149.648 36.7933 149.408 36.94C149.174 37.0867 148.988 37.2633 148.848 37.47V41H148.098V36.17H148.848V36.87C148.968 36.6833 149.178 36.5 149.478 36.32C149.778 36.14 150.088 36.05 150.408 36.05C150.761 36.05 151.048 36.1333 151.268 36.3C151.488 36.4667 151.634 36.6833 151.708 36.95C151.854 36.71 152.078 36.5 152.378 36.32C152.678 36.14 152.994 36.05 153.328 36.05C154.228 36.05 154.678 36.5367 154.678 37.51V41ZM158.554 41.12C157.874 41.12 157.33 40.8367 156.924 40.27V42.84H156.174V36.17H156.924V36.89C157.104 36.6367 157.337 36.4333 157.624 36.28C157.91 36.1267 158.22 36.05 158.554 36.05C159.194 36.05 159.71 36.28 160.104 36.74C160.504 37.1933 160.704 37.8067 160.704 38.58C160.704 39.3533 160.504 39.97 160.104 40.43C159.71 40.89 159.194 41.12 158.554 41.12ZM158.364 40.45C158.837 40.45 159.214 40.2767 159.494 39.93C159.774 39.5767 159.914 39.1267 159.914 38.58C159.914 38.0333 159.774 37.5867 159.494 37.24C159.214 36.8933 158.837 36.72 158.364 36.72C158.077 36.72 157.797 36.7967 157.524 36.95C157.257 37.0967 157.057 37.2767 156.924 37.49V39.67C157.057 39.89 157.257 40.0767 157.524 40.23C157.797 40.3767 158.077 40.45 158.364 40.45ZM165.736 40.39C165.303 40.8767 164.726 41.12 164.006 41.12C163.286 41.12 162.706 40.8767 162.266 40.39C161.833 39.9033 161.616 39.3 161.616 38.58C161.616 37.86 161.833 37.26 162.266 36.78C162.706 36.2933 163.286 36.05 164.006 36.05C164.726 36.05 165.303 36.2933 165.736 36.78C166.176 37.26 166.396 37.86 166.396 38.58C166.396 39.3 166.176 39.9033 165.736 40.39ZM162.826 39.91C163.12 40.27 163.513 40.45 164.006 40.45C164.5 40.45 164.89 40.27 165.176 39.91C165.463 39.5433 165.606 39.1 165.606 38.58C165.606 38.06 165.463 37.62 165.176 37.26C164.89 36.9 164.5 36.72 164.006 36.72C163.513 36.72 163.12 36.9033 162.826 37.27C162.54 37.63 162.396 38.0667 162.396 38.58C162.396 39.1 162.54 39.5433 162.826 39.91ZM168.369 41H167.619V36.17H168.369V36.95C168.816 36.3633 169.352 36.07 169.979 36.07V36.84C169.886 36.82 169.786 36.81 169.679 36.81C169.452 36.81 169.206 36.89 168.939 37.05C168.672 37.21 168.482 37.3867 168.369 37.58V41ZM25.52 56H24.77V55.45C24.3633 55.8967 23.83 56.12 23.17 56.12C22.7233 56.12 22.33 55.9767 21.99 55.69C21.65 55.4033 21.48 55.0133 21.48 54.52C21.48 54.0133 21.6467 53.6233 21.98 53.35C22.32 53.07 22.7167 52.93 23.17 52.93C23.8567 52.93 24.39 53.15 24.77 53.59V52.72C24.77 52.4 24.6567 52.15 24.43 51.97C24.2033 51.79 23.91 51.7 23.55 51.7C22.9833 51.7 22.49 51.9233 22.07 52.37L21.72 51.85C22.2333 51.3167 22.8767 51.05 23.65 51.05C24.2033 51.05 24.6533 51.1833 25 51.45C25.3467 51.7167 25.52 52.1267 25.52 52.68V56ZM23.44 55.58C24.04 55.58 24.4833 55.38 24.77 54.98V54.07C24.4833 53.67 24.04 53.47 23.44 53.47C23.0933 53.47 22.8067 53.57 22.58 53.77C22.36 53.9633 22.25 54.2167 22.25 54.53C22.25 54.8367 22.36 55.09 22.58 55.29C22.8067 55.4833 23.0933 55.58 23.44 55.58ZM33.6034 56H32.8534V52.72C32.8534 52.0533 32.5568 51.72 31.9634 51.72C31.7234 51.72 31.4834 51.7933 31.2434 51.94C31.0034 52.0867 30.8168 52.26 30.6834 52.46V56H29.9334V52.72C29.9334 52.0533 29.6368 51.72 29.0434 51.72C28.8101 51.72 28.5734 51.7933 28.3334 51.94C28.1001 52.0867 27.9134 52.2633 27.7734 52.47V56H27.0234V51.17H27.7734V51.87C27.8934 51.6833 28.1034 51.5 28.4034 51.32C28.7034 51.14 29.0134 51.05 29.3334 51.05C29.6868 51.05 29.9734 51.1333 30.1934 51.3C30.4134 51.4667 30.5601 51.6833 30.6334 51.95C30.7801 51.71 31.0034 51.5 31.3034 51.32C31.6034 51.14 31.9201 51.05 32.2534 51.05C33.1534 51.05 33.6034 51.5367 33.6034 52.51V56ZM37.2796 56.12C36.5596 56.12 35.9696 55.8867 35.5096 55.42C35.0496 54.9467 34.8196 54.3333 34.8196 53.58C34.8196 52.8733 35.0463 52.2767 35.4996 51.79C35.9529 51.2967 36.5196 51.05 37.1996 51.05C37.9129 51.05 38.4763 51.2967 38.8896 51.79C39.3096 52.2767 39.5196 52.8933 39.5196 53.64V53.83H35.6096C35.6429 54.3033 35.8163 54.7 36.1296 55.02C36.4429 55.34 36.8496 55.5 37.3496 55.5C37.9496 55.5 38.4463 55.2967 38.8396 54.89L39.1996 55.38C38.7063 55.8733 38.0663 56.12 37.2796 56.12ZM38.7796 53.28C38.7729 52.8667 38.6329 52.4967 38.3596 52.17C38.0863 51.8367 37.6963 51.67 37.1896 51.67C36.7096 51.67 36.3296 51.8333 36.0496 52.16C35.7763 52.4867 35.6296 52.86 35.6096 53.28H38.7796ZM41.9544 56.12C41.601 56.12 41.3344 56.0233 41.1544 55.83C40.9744 55.6367 40.8844 55.3567 40.8844 54.99V51.83H40.0844V51.17H40.8844V49.85H41.6344V51.17H42.6144V51.83H41.6344V54.83C41.6344 55.0167 41.6744 55.1667 41.7544 55.28C41.841 55.3933 41.9644 55.45 42.1244 55.45C42.3444 55.45 42.5144 55.3833 42.6344 55.25L42.8544 55.81C42.6344 56.0167 42.3344 56.12 41.9544 56.12ZM48.362 56H47.542L45.532 51.17H46.342L47.952 55.13L49.552 51.17H50.372L48.362 56ZM53.3343 56.12C52.6143 56.12 52.0243 55.8867 51.5643 55.42C51.1043 54.9467 50.8743 54.3333 50.8743 53.58C50.8743 52.8733 51.101 52.2767 51.5543 51.79C52.0076 51.2967 52.5743 51.05 53.2543 51.05C53.9676 51.05 54.531 51.2967 54.9443 51.79C55.3643 52.2767 55.5743 52.8933 55.5743 53.64V53.83H51.6643C51.6976 54.3033 51.871 54.7 52.1843 55.02C52.4976 55.34 52.9043 55.5 53.4043 55.5C54.0043 55.5 54.501 55.2967 54.8943 54.89L55.2543 55.38C54.761 55.8733 54.121 56.12 53.3343 56.12ZM54.8343 53.28C54.8276 52.8667 54.6876 52.4967 54.4143 52.17C54.141 51.8367 53.751 51.67 53.2443 51.67C52.7643 51.67 52.3843 51.8333 52.1043 52.16C51.831 52.4867 51.6843 52.86 51.6643 53.28H54.8343ZM60.7991 56H60.0491V52.84C60.0491 52.4333 59.9557 52.1467 59.7691 51.98C59.5824 51.8067 59.3157 51.72 58.9691 51.72C58.6891 51.72 58.4157 51.7933 58.1491 51.94C57.8891 52.0867 57.6857 52.2633 57.5391 52.47V56H56.7891V51.17H57.5391V51.87C57.7257 51.65 57.9757 51.46 58.2891 51.3C58.6024 51.1333 58.9257 51.05 59.2591 51.05C60.2857 51.05 60.7991 51.57 60.7991 52.61V56ZM62.6669 50.48C62.5335 50.48 62.4169 50.4333 62.3169 50.34C62.2169 50.24 62.1669 50.12 62.1669 49.98C62.1669 49.84 62.2169 49.72 62.3169 49.62C62.4169 49.52 62.5335 49.47 62.6669 49.47C62.8069 49.47 62.9269 49.52 63.0269 49.62C63.1269 49.72 63.1769 49.84 63.1769 49.98C63.1769 50.12 63.1269 50.24 63.0269 50.34C62.9269 50.4333 62.8069 50.48 62.6669 50.48ZM63.0469 56H62.2969V51.17H63.0469V56ZM68.313 56H67.563V55.45C67.1563 55.8967 66.623 56.12 65.963 56.12C65.5163 56.12 65.123 55.9767 64.783 55.69C64.443 55.4033 64.273 55.0133 64.273 54.52C64.273 54.0133 64.4396 53.6233 64.773 53.35C65.113 53.07 65.5096 52.93 65.963 52.93C66.6496 52.93 67.183 53.15 67.563 53.59V52.72C67.563 52.4 67.4496 52.15 67.223 51.97C66.9963 51.79 66.703 51.7 66.343 51.7C65.7763 51.7 65.283 51.9233 64.863 52.37L64.513 51.85C65.0263 51.3167 65.6696 51.05 66.443 51.05C66.9963 51.05 67.4463 51.1833 67.793 51.45C68.1396 51.7167 68.313 52.1267 68.313 52.68V56ZM66.233 55.58C66.833 55.58 67.2763 55.38 67.563 54.98V54.07C67.2763 53.67 66.833 53.47 66.233 53.47C65.8863 53.47 65.5996 53.57 65.373 53.77C65.153 53.9633 65.043 54.2167 65.043 54.53C65.043 54.8367 65.153 55.09 65.373 55.29C65.5996 55.4833 65.8863 55.58 66.233 55.58ZM76.3964 56H75.6464V52.72C75.6464 52.0533 75.3497 51.72 74.7564 51.72C74.5164 51.72 74.2764 51.7933 74.0364 51.94C73.7964 52.0867 73.6097 52.26 73.4764 52.46V56H72.7264V52.72C72.7264 52.0533 72.4297 51.72 71.8364 51.72C71.6031 51.72 71.3664 51.7933 71.1264 51.94C70.8931 52.0867 70.7064 52.2633 70.5664 52.47V56H69.8164V51.17H70.5664V51.87C70.6864 51.6833 70.8964 51.5 71.1964 51.32C71.4964 51.14 71.8064 51.05 72.1264 51.05C72.4797 51.05 72.7664 51.1333 72.9864 51.3C73.2064 51.4667 73.3531 51.6833 73.4264 51.95C73.5731 51.71 73.7964 51.5 74.0964 51.32C74.3964 51.14 74.7131 51.05 75.0464 51.05C75.9464 51.05 76.3964 51.5367 76.3964 52.51V56ZM82.6507 56.12C81.9307 56.12 81.3407 55.8867 80.8807 55.42C80.4207 54.9467 80.1907 54.3333 80.1907 53.58C80.1907 52.8733 80.4174 52.2767 80.8707 51.79C81.324 51.2967 81.8907 51.05 82.5707 51.05C83.284 51.05 83.8474 51.2967 84.2607 51.79C84.6807 52.2767 84.8907 52.8933 84.8907 53.64V53.83H80.9807C81.014 54.3033 81.1874 54.7 81.5007 55.02C81.814 55.34 82.2207 55.5 82.7207 55.5C83.3207 55.5 83.8174 55.2967 84.2107 54.89L84.5707 55.38C84.0774 55.8733 83.4374 56.12 82.6507 56.12ZM84.1507 53.28C84.144 52.8667 84.004 52.4967 83.7307 52.17C83.4574 51.8367 83.0674 51.67 82.5607 51.67C82.0807 51.67 81.7007 51.8333 81.4207 52.16C81.1474 52.4867 81.0007 52.86 80.9807 53.28H84.1507ZM86.4755 50.48C86.3421 50.48 86.2255 50.4333 86.1255 50.34C86.0255 50.24 85.9755 50.12 85.9755 49.98C85.9755 49.84 86.0255 49.72 86.1255 49.62C86.2255 49.52 86.3421 49.47 86.4755 49.47C86.6155 49.47 86.7355 49.52 86.8355 49.62C86.9355 49.72 86.9855 49.84 86.9855 49.98C86.9855 50.12 86.9355 50.24 86.8355 50.34C86.7355 50.4333 86.6155 50.48 86.4755 50.48ZM86.8555 56H86.1055V51.17H86.8555V56ZM92.3616 56H91.6116V55.32C91.4116 55.5467 91.1582 55.7367 90.8516 55.89C90.5516 56.0433 90.2316 56.12 89.8916 56.12C88.8649 56.12 88.3516 55.6067 88.3516 54.58V51.17H89.1016V54.35C89.1016 54.75 89.1916 55.0333 89.3716 55.2C89.5582 55.3667 89.8282 55.45 90.1816 55.45C90.4616 55.45 90.7316 55.38 90.9916 55.24C91.2582 55.1 91.4649 54.9267 91.6116 54.72V51.17H92.3616V56ZM95.3894 56.12C94.5694 56.12 93.9194 55.8667 93.4394 55.36L93.8294 54.82C93.996 55.0133 94.2227 55.1767 94.5094 55.31C94.8027 55.4433 95.106 55.51 95.4194 55.51C95.7794 55.51 96.0594 55.4333 96.2594 55.28C96.4594 55.1267 96.5594 54.9267 96.5594 54.68C96.5594 54.4667 96.456 54.3 96.2494 54.18C96.0427 54.0533 95.7927 53.96 95.4994 53.9C95.2127 53.8333 94.9227 53.76 94.6294 53.68C94.336 53.5933 94.086 53.45 93.8794 53.25C93.6727 53.0433 93.5694 52.7733 93.5694 52.44C93.5694 52.0467 93.7294 51.7167 94.0494 51.45C94.376 51.1833 94.816 51.05 95.3694 51.05C96.096 51.05 96.6927 51.2833 97.1594 51.75L96.8094 52.27C96.4694 51.8633 95.9894 51.66 95.3694 51.66C95.0427 51.66 94.7827 51.7333 94.5894 51.88C94.396 52.02 94.2994 52.2 94.2994 52.42C94.2994 52.6133 94.4027 52.7667 94.6094 52.88C94.816 52.9867 95.0627 53.0733 95.3494 53.14C95.6427 53.2 95.936 53.2733 96.2294 53.36C96.5227 53.4467 96.7727 53.6 96.9794 53.82C97.186 54.0333 97.2894 54.3133 97.2894 54.66C97.2894 55.0867 97.1227 55.4367 96.7894 55.71C96.456 55.9833 95.9894 56.12 95.3894 56.12ZM105.088 56H104.338V52.72C104.338 52.0533 104.041 51.72 103.448 51.72C103.208 51.72 102.968 51.7933 102.728 51.94C102.488 52.0867 102.301 52.26 102.168 52.46V56H101.418V52.72C101.418 52.0533 101.121 51.72 100.528 51.72C100.294 51.72 100.058 51.7933 99.8178 51.94C99.5845 52.0867 99.3978 52.2633 99.2578 52.47V56H98.5078V51.17H99.2578V51.87C99.3778 51.6833 99.5878 51.5 99.8878 51.32C100.188 51.14 100.498 51.05 100.818 51.05C101.171 51.05 101.458 51.1333 101.678 51.3C101.898 51.4667 102.044 51.6833 102.118 51.95C102.264 51.71 102.488 51.5 102.788 51.32C103.088 51.14 103.404 51.05 103.738 51.05C104.638 51.05 105.088 51.5367 105.088 52.51V56ZM110.424 55.39C109.991 55.8767 109.414 56.12 108.694 56.12C107.974 56.12 107.394 55.8767 106.954 55.39C106.521 54.9033 106.304 54.3 106.304 53.58C106.304 52.86 106.521 52.26 106.954 51.78C107.394 51.2933 107.974 51.05 108.694 51.05C109.414 51.05 109.991 51.2933 110.424 51.78C110.864 52.26 111.084 52.86 111.084 53.58C111.084 54.3 110.864 54.9033 110.424 55.39ZM107.514 54.91C107.807 55.27 108.201 55.45 108.694 55.45C109.187 55.45 109.577 55.27 109.864 54.91C110.151 54.5433 110.294 54.1 110.294 53.58C110.294 53.06 110.151 52.62 109.864 52.26C109.577 51.9 109.187 51.72 108.694 51.72C108.201 51.72 107.807 51.9033 107.514 52.27C107.227 52.63 107.084 53.0667 107.084 53.58C107.084 54.1 107.227 54.5433 107.514 54.91ZM116.557 56H115.807V55.28C115.393 55.84 114.85 56.12 114.177 56.12C113.537 56.12 113.017 55.8933 112.617 55.44C112.223 54.98 112.027 54.3633 112.027 53.59C112.027 52.8233 112.223 52.21 112.617 51.75C113.017 51.2833 113.537 51.05 114.177 51.05C114.843 51.05 115.387 51.3333 115.807 51.9V49.33H116.557V56ZM114.357 55.45C114.65 55.45 114.93 55.3767 115.197 55.23C115.463 55.0833 115.667 54.9033 115.807 54.69V52.5C115.667 52.28 115.46 52.0967 115.187 51.95C114.92 51.7967 114.643 51.72 114.357 51.72C113.883 51.72 113.507 51.8967 113.227 52.25C112.947 52.5967 112.807 53.0433 112.807 53.59C112.807 54.1367 112.947 54.5833 113.227 54.93C113.507 55.2767 113.883 55.45 114.357 55.45ZM124.407 56H123.657V55.45C123.25 55.8967 122.717 56.12 122.057 56.12C121.61 56.12 121.217 55.9767 120.877 55.69C120.537 55.4033 120.367 55.0133 120.367 54.52C120.367 54.0133 120.533 53.6233 120.867 53.35C121.207 53.07 121.603 52.93 122.057 52.93C122.743 52.93 123.277 53.15 123.657 53.59V52.72C123.657 52.4 123.543 52.15 123.317 51.97C123.09 51.79 122.797 51.7 122.437 51.7C121.87 51.7 121.377 51.9233 120.957 52.37L120.607 51.85C121.12 51.3167 121.763 51.05 122.537 51.05C123.09 51.05 123.54 51.1833 123.887 51.45C124.233 51.7167 124.407 52.1267 124.407 52.68V56ZM122.327 55.58C122.927 55.58 123.37 55.38 123.657 54.98V54.07C123.37 53.67 122.927 53.47 122.327 53.47C121.98 53.47 121.693 53.57 121.467 53.77C121.247 53.9633 121.137 54.2167 121.137 54.53C121.137 54.8367 121.247 55.09 121.467 55.29C121.693 55.4833 121.98 55.58 122.327 55.58ZM129.92 56H129.17V55.32C128.97 55.5467 128.717 55.7367 128.41 55.89C128.11 56.0433 127.79 56.12 127.45 56.12C126.423 56.12 125.91 55.6067 125.91 54.58V51.17H126.66V54.35C126.66 54.75 126.75 55.0333 126.93 55.2C127.117 55.3667 127.387 55.45 127.74 55.45C128.02 55.45 128.29 55.38 128.55 55.24C128.817 55.1 129.023 54.9267 129.17 54.72V51.17H129.92V56ZM132.638 56.12C132.285 56.12 132.018 56.0233 131.838 55.83C131.658 55.6367 131.568 55.3567 131.568 54.99V51.83H130.768V51.17H131.568V49.85H132.318V51.17H133.298V51.83H132.318V54.83C132.318 55.0167 132.358 55.1667 132.438 55.28C132.525 55.3933 132.648 55.45 132.808 55.45C133.028 55.45 133.198 55.3833 133.318 55.25L133.538 55.81C133.318 56.0167 133.018 56.12 132.638 56.12ZM136.537 56.12C135.817 56.12 135.227 55.8867 134.767 55.42C134.307 54.9467 134.077 54.3333 134.077 53.58C134.077 52.8733 134.304 52.2767 134.757 51.79C135.211 51.2967 135.777 51.05 136.457 51.05C137.171 51.05 137.734 51.2967 138.147 51.79C138.567 52.2767 138.777 52.8933 138.777 53.64V53.83H134.867C134.901 54.3033 135.074 54.7 135.387 55.02C135.701 55.34 136.107 55.5 136.607 55.5C137.207 55.5 137.704 55.2967 138.097 54.89L138.457 55.38C137.964 55.8733 137.324 56.12 136.537 56.12ZM138.037 53.28C138.031 52.8667 137.891 52.4967 137.617 52.17C137.344 51.8367 136.954 51.67 136.447 51.67C135.967 51.67 135.587 51.8333 135.307 52.16C135.034 52.4867 134.887 52.86 134.867 53.28H138.037ZM140.714 55.94C140.607 56.0467 140.477 56.1 140.324 56.1C140.17 56.1 140.04 56.0467 139.934 55.94C139.827 55.8333 139.774 55.7033 139.774 55.55C139.774 55.3967 139.827 55.2667 139.934 55.16C140.04 55.0533 140.17 55 140.324 55C140.477 55 140.607 55.0533 140.714 55.16C140.82 55.2667 140.874 55.3967 140.874 55.55C140.874 55.7033 140.82 55.8333 140.714 55.94ZM22.61 71H21.78V64.33H24.46C25.1067 64.33 25.6167 64.5233 25.99 64.91C26.3633 65.2967 26.55 65.7733 26.55 66.34C26.55 66.9067 26.36 67.3833 25.98 67.77C25.6067 68.1567 25.1 68.35 24.46 68.35H22.61V71ZM24.36 67.61C24.7533 67.61 25.0733 67.4933 25.32 67.26C25.5667 67.02 25.69 66.7133 25.69 66.34C25.69 65.9667 25.5667 65.6633 25.32 65.43C25.0733 65.19 24.7533 65.07 24.36 65.07H22.61V67.61H24.36ZM28.3691 71H27.6191V66.17H28.3691V66.95C28.8158 66.3633 29.3525 66.07 29.9791 66.07V66.84C29.8858 66.82 29.7858 66.81 29.6791 66.81C29.4525 66.81 29.2058 66.89 28.9391 67.05C28.6725 67.21 28.4825 67.3867 28.3691 67.58V71ZM34.7599 70.39C34.3266 70.8767 33.7499 71.12 33.0299 71.12C32.3099 71.12 31.7299 70.8767 31.2899 70.39C30.8566 69.9033 30.6399 69.3 30.6399 68.58C30.6399 67.86 30.8566 67.26 31.2899 66.78C31.7299 66.2933 32.3099 66.05 33.0299 66.05C33.7499 66.05 34.3266 66.2933 34.7599 66.78C35.1999 67.26 35.4199 67.86 35.4199 68.58C35.4199 69.3 35.1999 69.9033 34.7599 70.39ZM31.8499 69.91C32.1433 70.27 32.5366 70.45 33.0299 70.45C33.5233 70.45 33.9133 70.27 34.1999 69.91C34.4866 69.5433 34.6299 69.1 34.6299 68.58C34.6299 68.06 34.4866 67.62 34.1999 67.26C33.9133 66.9 33.5233 66.72 33.0299 66.72C32.5366 66.72 32.1433 66.9033 31.8499 67.27C31.5633 67.63 31.4199 68.0667 31.4199 68.58C31.4199 69.1 31.5633 69.5433 31.8499 69.91ZM37.0126 65.48C36.8792 65.48 36.7626 65.4333 36.6626 65.34C36.5626 65.24 36.5126 65.12 36.5126 64.98C36.5126 64.84 36.5626 64.72 36.6626 64.62C36.7626 64.52 36.8792 64.47 37.0126 64.47C37.1526 64.47 37.2726 64.52 37.3726 64.62C37.4726 64.72 37.5226 64.84 37.5226 64.98C37.5226 65.12 37.4726 65.24 37.3726 65.34C37.2726 65.4333 37.1526 65.48 37.0126 65.48ZM37.3926 71H36.6426V66.17H37.3926V71ZM43.1387 71H42.3887V70.28C41.9753 70.84 41.432 71.12 40.7587 71.12C40.1187 71.12 39.5987 70.8933 39.1987 70.44C38.8053 69.98 38.6087 69.3633 38.6087 68.59C38.6087 67.8233 38.8053 67.21 39.1987 66.75C39.5987 66.2833 40.1187 66.05 40.7587 66.05C41.4253 66.05 41.9687 66.3333 42.3887 66.9V64.33H43.1387V71ZM40.9387 70.45C41.232 70.45 41.512 70.3767 41.7787 70.23C42.0453 70.0833 42.2487 69.9033 42.3887 69.69V67.5C42.2487 67.28 42.042 67.0967 41.7687 66.95C41.502 66.7967 41.2253 66.72 40.9387 66.72C40.4653 66.72 40.0887 66.8967 39.8087 67.25C39.5287 67.5967 39.3887 68.0433 39.3887 68.59C39.3887 69.1367 39.5287 69.5833 39.8087 69.93C40.0887 70.2767 40.4653 70.45 40.9387 70.45ZM46.8206 71.12C46.1006 71.12 45.5106 70.8867 45.0506 70.42C44.5906 69.9467 44.3606 69.3333 44.3606 68.58C44.3606 67.8733 44.5873 67.2767 45.0406 66.79C45.494 66.2967 46.0606 66.05 46.7406 66.05C47.454 66.05 48.0173 66.2967 48.4306 66.79C48.8506 67.2767 49.0606 67.8933 49.0606 68.64V68.83H45.1506C45.184 69.3033 45.3573 69.7 45.6706 70.02C45.984 70.34 46.3906 70.5 46.8906 70.5C47.4906 70.5 47.9873 70.2967 48.3806 69.89L48.7406 70.38C48.2473 70.8733 47.6073 71.12 46.8206 71.12ZM48.3206 68.28C48.314 67.8667 48.174 67.4967 47.9006 67.17C47.6273 66.8367 47.2373 66.67 46.7306 66.67C46.2506 66.67 45.8706 66.8333 45.5906 67.16C45.3173 67.4867 45.1706 67.86 45.1506 68.28H48.3206ZM54.2854 71H53.5354V67.84C53.5354 67.4333 53.4421 67.1467 53.2554 66.98C53.0687 66.8067 52.8021 66.72 52.4554 66.72C52.1754 66.72 51.9021 66.7933 51.6354 66.94C51.3754 67.0867 51.1721 67.2633 51.0254 67.47V71H50.2754V66.17H51.0254V66.87C51.2121 66.65 51.4621 66.46 51.7754 66.3C52.0887 66.1333 52.4121 66.05 52.7454 66.05C53.7721 66.05 54.2854 66.57 54.2854 67.61V71ZM57.0032 71.12C56.6499 71.12 56.3832 71.0233 56.2032 70.83C56.0232 70.6367 55.9332 70.3567 55.9332 69.99V66.83H55.1332V66.17H55.9332V64.85H56.6832V66.17H57.6632V66.83H56.6832V69.83C56.6832 70.0167 56.7232 70.1667 56.8032 70.28C56.8899 70.3933 57.0132 70.45 57.1732 70.45C57.3932 70.45 57.5632 70.3833 57.6832 70.25L57.9032 70.81C57.6832 71.0167 57.3832 71.12 57.0032 71.12ZM67.8808 71H67.1308V67.72C67.1308 67.0533 66.8341 66.72 66.2408 66.72C66.0008 66.72 65.7608 66.7933 65.5208 66.94C65.2808 67.0867 65.0941 67.26 64.9608 67.46V71H64.2108V67.72C64.2108 67.0533 63.9141 66.72 63.3208 66.72C63.0874 66.72 62.8508 66.7933 62.6108 66.94C62.3774 67.0867 62.1908 67.2633 62.0508 67.47V71H61.3008V66.17H62.0508V66.87C62.1708 66.6833 62.3808 66.5 62.6808 66.32C62.9808 66.14 63.2908 66.05 63.6108 66.05C63.9641 66.05 64.2508 66.1333 64.4708 66.3C64.6908 66.4667 64.8374 66.6833 64.9108 66.95C65.0574 66.71 65.2808 66.5 65.5808 66.32C65.8808 66.14 66.1974 66.05 66.5308 66.05C67.4308 66.05 67.8808 66.5367 67.8808 67.51V71ZM69.747 65.48C69.6136 65.48 69.497 65.4333 69.397 65.34C69.297 65.24 69.247 65.12 69.247 64.98C69.247 64.84 69.297 64.72 69.397 64.62C69.497 64.52 69.6136 64.47 69.747 64.47C69.887 64.47 70.007 64.52 70.107 64.62C70.207 64.72 70.257 64.84 70.257 64.98C70.257 65.12 70.207 65.24 70.107 65.34C70.007 65.4333 69.887 65.48 69.747 65.48ZM70.127 71H69.377V66.17H70.127V71ZM75.633 71H74.883V67.84C74.883 67.4333 74.7897 67.1467 74.603 66.98C74.4164 66.8067 74.1497 66.72 73.803 66.72C73.523 66.72 73.2497 66.7933 72.983 66.94C72.723 67.0867 72.5197 67.2633 72.373 67.47V71H71.623V66.17H72.373V66.87C72.5597 66.65 72.8097 66.46 73.123 66.3C73.4364 66.1333 73.7597 66.05 74.093 66.05C75.1197 66.05 75.633 66.57 75.633 67.61V71ZM77.5009 65.48C77.3675 65.48 77.2509 65.4333 77.1509 65.34C77.0509 65.24 77.0009 65.12 77.0009 64.98C77.0009 64.84 77.0509 64.72 77.1509 64.62C77.2509 64.52 77.3675 64.47 77.5009 64.47C77.6409 64.47 77.7609 64.52 77.8609 64.62C77.9609 64.72 78.0109 64.84 78.0109 64.98C78.0109 65.12 77.9609 65.24 77.8609 65.34C77.7609 65.4333 77.6409 65.48 77.5009 65.48ZM77.8809 71H77.1309V66.17H77.8809V71ZM85.957 71H85.207V67.72C85.207 67.0533 84.9103 66.72 84.317 66.72C84.077 66.72 83.837 66.7933 83.597 66.94C83.357 67.0867 83.1703 67.26 83.037 67.46V71H82.287V67.72C82.287 67.0533 81.9903 66.72 81.397 66.72C81.1636 66.72 80.927 66.7933 80.687 66.94C80.4536 67.0867 80.267 67.2633 80.127 67.47V71H79.377V66.17H80.127V66.87C80.247 66.6833 80.457 66.5 80.757 66.32C81.057 66.14 81.367 66.05 81.687 66.05C82.0403 66.05 82.327 66.1333 82.547 66.3C82.767 66.4667 82.9136 66.6833 82.987 66.95C83.1336 66.71 83.357 66.5 83.657 66.32C83.957 66.14 84.2736 66.05 84.607 66.05C85.507 66.05 85.957 66.5367 85.957 67.51V71ZM93.8013 71H93.0513V70.45C92.6446 70.8967 92.1113 71.12 91.4513 71.12C91.0046 71.12 90.6113 70.9767 90.2713 70.69C89.9313 70.4033 89.7613 70.0133 89.7613 69.52C89.7613 69.0133 89.9279 68.6233 90.2613 68.35C90.6013 68.07 90.9979 67.93 91.4513 67.93C92.1379 67.93 92.6713 68.15 93.0513 68.59V67.72C93.0513 67.4 92.9379 67.15 92.7113 66.97C92.4846 66.79 92.1913 66.7 91.8313 66.7C91.2646 66.7 90.7713 66.9233 90.3513 67.37L90.0013 66.85C90.5146 66.3167 91.1579 66.05 91.9313 66.05C92.4846 66.05 92.9346 66.1833 93.2813 66.45C93.6279 66.7167 93.8013 67.1267 93.8013 67.68V71ZM91.7213 70.58C92.3213 70.58 92.7646 70.38 93.0513 69.98V69.07C92.7646 68.67 92.3213 68.47 91.7213 68.47C91.3746 68.47 91.0879 68.57 90.8613 68.77C90.6413 68.9633 90.5312 69.2167 90.5312 69.53C90.5312 69.8367 90.6413 70.09 90.8613 70.29C91.0879 70.4833 91.3746 70.58 91.7213 70.58ZM99.5547 71H98.8047V70.28C98.3914 70.84 97.848 71.12 97.1747 71.12C96.5347 71.12 96.0147 70.8933 95.6147 70.44C95.2214 69.98 95.0247 69.3633 95.0247 68.59C95.0247 67.8233 95.2214 67.21 95.6147 66.75C96.0147 66.2833 96.5347 66.05 97.1747 66.05C97.8414 66.05 98.3847 66.3333 98.8047 66.9V64.33H99.5547V71ZM97.3547 70.45C97.648 70.45 97.928 70.3767 98.1947 70.23C98.4614 70.0833 98.6647 69.9033 98.8047 69.69V67.5C98.6647 67.28 98.458 67.0967 98.1847 66.95C97.918 66.7967 97.6414 66.72 97.3547 66.72C96.8814 66.72 96.5047 66.8967 96.2247 67.25C95.9447 67.5967 95.8047 68.0433 95.8047 68.59C95.8047 69.1367 95.9447 69.5833 96.2247 69.93C96.5047 70.2767 96.8814 70.45 97.3547 70.45ZM105.815 71.12C105.095 71.12 104.505 70.8867 104.045 70.42C103.585 69.9467 103.355 69.3333 103.355 68.58C103.355 67.8733 103.581 67.2767 104.035 66.79C104.488 66.2967 105.055 66.05 105.735 66.05C106.448 66.05 107.011 66.2967 107.425 66.79C107.845 67.2767 108.055 67.8933 108.055 68.64V68.83H104.145C104.178 69.3033 104.351 69.7 104.665 70.02C104.978 70.34 105.385 70.5 105.885 70.5C106.485 70.5 106.981 70.2967 107.375 69.89L107.735 70.38C107.241 70.8733 106.601 71.12 105.815 71.12ZM107.315 68.28C107.308 67.8667 107.168 67.4967 106.895 67.17C106.621 66.8367 106.231 66.67 105.725 66.67C105.245 66.67 104.865 66.8333 104.585 67.16C104.311 67.4867 104.165 67.86 104.145 68.28H107.315ZM113.27 71H112.4L110.95 69.02L109.5 71H108.64L110.49 68.52L108.74 66.17H109.61L110.95 68.01L112.29 66.17H113.16L111.41 68.52L113.27 71ZM115.942 71.12C115.222 71.12 114.632 70.8867 114.172 70.42C113.712 69.9467 113.482 69.3333 113.482 68.58C113.482 67.8733 113.708 67.2767 114.162 66.79C114.615 66.2967 115.182 66.05 115.862 66.05C116.575 66.05 117.138 66.2967 117.552 66.79C117.972 67.2767 118.182 67.8933 118.182 68.64V68.83H114.272C114.305 69.3033 114.478 69.7 114.792 70.02C115.105 70.34 115.512 70.5 116.012 70.5C116.612 70.5 117.108 70.2967 117.502 69.89L117.862 70.38C117.368 70.8733 116.728 71.12 115.942 71.12ZM117.442 68.28C117.435 67.8667 117.295 67.4967 117.022 67.17C116.748 66.8367 116.358 66.67 115.852 66.67C115.372 66.67 114.992 66.8333 114.712 67.16C114.438 67.4867 114.292 67.86 114.272 68.28H117.442ZM120.146 71H119.396V66.17H120.146V66.95C120.593 66.3633 121.13 66.07 121.756 66.07V66.84C121.663 66.82 121.563 66.81 121.456 66.81C121.23 66.81 120.983 66.89 120.716 67.05C120.45 67.21 120.26 67.3867 120.146 67.58V71ZM124.827 71.12C124.114 71.12 123.534 70.88 123.087 70.4C122.641 69.9133 122.417 69.3067 122.417 68.58C122.417 67.8533 122.641 67.25 123.087 66.77C123.534 66.29 124.114 66.05 124.827 66.05C125.574 66.05 126.164 66.33 126.597 66.89L126.097 67.35C125.791 66.93 125.381 66.72 124.867 66.72C124.361 66.72 123.954 66.8933 123.647 67.24C123.347 67.5867 123.197 68.0333 123.197 68.58C123.197 69.1267 123.347 69.5767 123.647 69.93C123.954 70.2767 124.361 70.45 124.867 70.45C125.374 70.45 125.784 70.24 126.097 69.82L126.597 70.28C126.164 70.84 125.574 71.12 124.827 71.12ZM128.018 65.48C127.885 65.48 127.768 65.4333 127.668 65.34C127.568 65.24 127.518 65.12 127.518 64.98C127.518 64.84 127.568 64.72 127.668 64.62C127.768 64.52 127.885 64.47 128.018 64.47C128.158 64.47 128.278 64.52 128.378 64.62C128.478 64.72 128.528 64.84 128.528 64.98C128.528 65.12 128.478 65.24 128.378 65.34C128.278 65.4333 128.158 65.48 128.018 65.48ZM128.398 71H127.648V66.17H128.398V71ZM131.115 71.12C130.761 71.12 130.495 71.0233 130.315 70.83C130.135 70.6367 130.045 70.3567 130.045 69.99V66.83H129.245V66.17H130.045V64.85H130.795V66.17H131.775V66.83H130.795V69.83C130.795 70.0167 130.835 70.1667 130.915 70.28C131.001 70.3933 131.125 70.45 131.285 70.45C131.505 70.45 131.675 70.3833 131.795 70.25L132.015 70.81C131.795 71.0167 131.495 71.12 131.115 71.12ZM136.604 71H135.854V70.45C135.447 70.8967 134.914 71.12 134.254 71.12C133.807 71.12 133.414 70.9767 133.074 70.69C132.734 70.4033 132.564 70.0133 132.564 69.52C132.564 69.0133 132.731 68.6233 133.064 68.35C133.404 68.07 133.801 67.93 134.254 67.93C134.941 67.93 135.474 68.15 135.854 68.59V67.72C135.854 67.4 135.741 67.15 135.514 66.97C135.287 66.79 134.994 66.7 134.634 66.7C134.067 66.7 133.574 66.9233 133.154 67.37L132.804 66.85C133.317 66.3167 133.961 66.05 134.734 66.05C135.287 66.05 135.737 66.1833 136.084 66.45C136.431 66.7167 136.604 67.1267 136.604 67.68V71ZM134.524 70.58C135.124 70.58 135.567 70.38 135.854 69.98V69.07C135.567 68.67 135.124 68.47 134.524 68.47C134.177 68.47 133.891 68.57 133.664 68.77C133.444 68.9633 133.334 69.2167 133.334 69.53C133.334 69.8367 133.444 70.09 133.664 70.29C133.891 70.4833 134.177 70.58 134.524 70.58ZM139.327 71.12C138.974 71.12 138.707 71.0233 138.527 70.83C138.347 70.6367 138.257 70.3567 138.257 69.99V66.83H137.457V66.17H138.257V64.85H139.007V66.17H139.987V66.83H139.007V69.83C139.007 70.0167 139.047 70.1667 139.127 70.28C139.214 70.3933 139.337 70.45 139.497 70.45C139.717 70.45 139.887 70.3833 140.007 70.25L140.227 70.81C140.007 71.0167 139.707 71.12 139.327 71.12ZM141.417 65.48C141.284 65.48 141.167 65.4333 141.067 65.34C140.967 65.24 140.917 65.12 140.917 64.98C140.917 64.84 140.967 64.72 141.067 64.62C141.167 64.52 141.284 64.47 141.417 64.47C141.557 64.47 141.677 64.52 141.777 64.62C141.877 64.72 141.927 64.84 141.927 64.98C141.927 65.12 141.877 65.24 141.777 65.34C141.677 65.4333 141.557 65.48 141.417 65.48ZM141.797 71H141.047V66.17H141.797V71ZM147.133 70.39C146.7 70.8767 146.123 71.12 145.403 71.12C144.683 71.12 144.103 70.8767 143.663 70.39C143.23 69.9033 143.013 69.3 143.013 68.58C143.013 67.86 143.23 67.26 143.663 66.78C144.103 66.2933 144.683 66.05 145.403 66.05C146.123 66.05 146.7 66.2933 147.133 66.78C147.573 67.26 147.793 67.86 147.793 68.58C147.793 69.3 147.573 69.9033 147.133 70.39ZM144.223 69.91C144.516 70.27 144.91 70.45 145.403 70.45C145.896 70.45 146.286 70.27 146.573 69.91C146.86 69.5433 147.003 69.1 147.003 68.58C147.003 68.06 146.86 67.62 146.573 67.26C146.286 66.9 145.896 66.72 145.403 66.72C144.91 66.72 144.516 66.9033 144.223 67.27C143.936 67.63 143.793 68.0667 143.793 68.58C143.793 69.1 143.936 69.5433 144.223 69.91ZM153.026 71H152.276V67.84C152.276 67.4333 152.182 67.1467 151.996 66.98C151.809 66.8067 151.542 66.72 151.196 66.72C150.916 66.72 150.642 66.7933 150.376 66.94C150.116 67.0867 149.912 67.2633 149.766 67.47V71H149.016V66.17H149.766V66.87C149.952 66.65 150.202 66.46 150.516 66.3C150.829 66.1333 151.152 66.05 151.486 66.05C152.512 66.05 153.026 66.57 153.026 67.61V71ZM159.122 70.45C159.415 70.45 159.695 70.3767 159.962 70.23C160.235 70.0767 160.435 69.89 160.562 69.67V67.49C160.435 67.2767 160.235 67.0967 159.962 66.95C159.695 66.7967 159.415 66.72 159.122 66.72C158.648 66.72 158.272 66.8933 157.992 67.24C157.718 67.5867 157.582 68.0333 157.582 68.58C157.582 69.1267 157.718 69.5767 157.992 69.93C158.272 70.2767 158.648 70.45 159.122 70.45ZM158.942 71.12C158.302 71.12 157.782 70.89 157.382 70.43C156.988 69.97 156.792 69.3533 156.792 68.58C156.792 67.8067 156.988 67.1933 157.382 66.74C157.782 66.28 158.302 66.05 158.942 66.05C159.275 66.05 159.585 66.1267 159.872 66.28C160.158 66.4333 160.388 66.6367 160.562 66.89V66.17H161.312V72.84H160.562V70.27C160.155 70.8367 159.615 71.12 158.942 71.12ZM166.834 71H166.084V70.32C165.884 70.5467 165.631 70.7367 165.324 70.89C165.024 71.0433 164.704 71.12 164.364 71.12C163.338 71.12 162.824 70.6067 162.824 69.58V66.17H163.574V69.35C163.574 69.75 163.664 70.0333 163.844 70.2C164.031 70.3667 164.301 70.45 164.654 70.45C164.934 70.45 165.204 70.38 165.464 70.24C165.731 70.1 165.938 69.9267 166.084 69.72V66.17H166.834V71ZM168.702 65.48C168.569 65.48 168.452 65.4333 168.352 65.34C168.252 65.24 168.202 65.12 168.202 64.98C168.202 64.84 168.252 64.72 168.352 64.62C168.452 64.52 168.569 64.47 168.702 64.47C168.842 64.47 168.962 64.52 169.062 64.62C169.162 64.72 169.212 64.84 169.212 64.98C169.212 65.12 169.162 65.24 169.062 65.34C168.962 65.4333 168.842 65.48 168.702 65.48ZM169.082 71H168.332V66.17H169.082V71ZM171.368 70.94C171.261 71.0467 171.131 71.1 170.978 71.1C170.825 71.1 170.695 71.0467 170.588 70.94C170.481 70.8333 170.428 70.7033 170.428 70.55C170.428 70.3967 170.481 70.2667 170.588 70.16C170.695 70.0533 170.825 70 170.978 70C171.131 70 171.261 70.0533 171.368 70.16C171.475 70.2667 171.528 70.3967 171.528 70.55C171.528 70.7033 171.475 70.8333 171.368 70.94ZM173.673 70.94C173.566 71.0467 173.436 71.1 173.283 71.1C173.129 71.1 172.999 71.0467 172.893 70.94C172.786 70.8333 172.733 70.7033 172.733 70.55C172.733 70.3967 172.786 70.2667 172.893 70.16C172.999 70.0533 173.129 70 173.283 70C173.436 70 173.566 70.0533 173.673 70.16C173.779 70.2667 173.833 70.3967 173.833 70.55C173.833 70.7033 173.779 70.8333 173.673 70.94ZM175.978 70.94C175.871 71.0467 175.741 71.1 175.588 71.1C175.434 71.1 175.304 71.0467 175.198 70.94C175.091 70.8333 175.038 70.7033 175.038 70.55C175.038 70.3967 175.091 70.2667 175.198 70.16C175.304 70.0533 175.434 70 175.588 70C175.741 70 175.871 70.0533 175.978 70.16C176.084 70.2667 176.138 70.3967 176.138 70.55C176.138 70.7033 176.084 70.8333 175.978 70.94Z" fill="#A5A9C0"/>
<defs>
<filter id="filter0_ddd" x="0.823578" y="0" width="204.611" height="102.393" filterUnits="userSpaceOnUse" color-interpolation-filters="sRGB">
<feFlood flood-opacity="0" result="BackgroundImageFix"/>
<feColorMatrix in="SourceAlpha" type="matrix" values="0 0 0 0 0 0 0 0 0 0 0 0 0 0 0 0 0 0 127 0"/>
<feOffset/>
<feGaussianBlur stdDeviation="0.5"/>
<feColorMatrix type="matrix" values="0 0 0 0 0 0 0 0 0 0 0 0 0 0 0 0 0 0 0.04 0"/>
<feBlend mode="normal" in2="BackgroundImageFix" result="effect1_dropShadow"/>
<feColorMatrix in="SourceAlpha" type="matrix" values="0 0 0 0 0 0 0 0 0 0 0 0 0 0 0 0 0 0 127 0"/>
<feOffset/>
<feGaussianBlur stdDeviation="1"/>
<feColorMatrix type="matrix" values="0 0 0 0 0 0 0 0 0 0 0 0 0 0 0 0 0 0 0.06 0"/>
<feBlend mode="normal" in2="effect1_dropShadow" result="effect2_dropShadow"/>
<feColorMatrix in="SourceAlpha" type="matrix" values="0 0 0 0 0 0 0 0 0 0 0 0 0 0 0 0 0 0 127 0"/>
<feOffset dy="4"/>
<feGaussianBlur stdDeviation="4"/>
<feColorMatrix type="matrix" values="0 0 0 0 0 0 0 0 0 0 0 0 0 0 0 0 0 0 0.04 0"/>
<feBlend mode="normal" in2="effect2_dropShadow" result="effect3_dropShadow"/>
<feBlend mode="normal" in="SourceGraphic" in2="effect3_dropShadow" result="shape"/>
</filter>
</defs>
</svg>
