<svg width="201" height="101" viewBox="0 0 201 101" fill="none" xmlns="http://www.w3.org/2000/svg">
<g filter="url(#filter0_ddd)">
<path d="M14 9.00001C14 6.23858 16.2386 4 19 4H188C190.761 4 193 6.23858 193 9V76.9558C193 79.7172 190.761 81.9558 188 81.9558H30L10.0495 88.3438C9.23936 88.6032 8.49587 87.7968 8.82003 87.0103L14 74.442V9.00001Z" fill="white"/>
</g>
<path d="M29.15 25H24.78V18.33H29.15V19.07H25.61V21.22H29.08V21.96H25.61V24.26H29.15V25ZM30.8134 19.48C30.68 19.48 30.5634 19.4333 30.4634 19.34C30.3634 19.24 30.3134 19.12 30.3134 18.98C30.3134 18.84 30.3634 18.72 30.4634 18.62C30.5634 18.52 30.68 18.47 30.8134 18.47C30.9534 18.47 31.0734 18.52 31.1734 18.62C31.2734 18.72 31.3234 18.84 31.3234 18.98C31.3234 19.12 31.2734 19.24 31.1734 19.34C31.0734 19.4333 30.9534 19.48 30.8134 19.48ZM31.1934 25H30.4434V20.17H31.1934V25ZM36.6995 25H35.9495V24.32C35.7495 24.5467 35.4961 24.7367 35.1895 24.89C34.8895 25.0433 34.5695 25.12 34.2295 25.12C33.2028 25.12 32.6895 24.6067 32.6895 23.58V20.17H33.4395V23.35C33.4395 23.75 33.5295 24.0333 33.7095 24.2C33.8961 24.3667 34.1661 24.45 34.5195 24.45C34.7995 24.45 35.0695 24.38 35.3295 24.24C35.5961 24.1 35.8028 23.9267 35.9495 23.72V20.17H36.6995V25ZM39.7273 25.12C38.9073 25.12 38.2573 24.8667 37.7773 24.36L38.1673 23.82C38.3339 24.0133 38.5606 24.1767 38.8473 24.31C39.1406 24.4433 39.4439 24.51 39.7573 24.51C40.1173 24.51 40.3973 24.4333 40.5973 24.28C40.7973 24.1267 40.8973 23.9267 40.8973 23.68C40.8973 23.4667 40.7939 23.3 40.5873 23.18C40.3806 23.0533 40.1306 22.96 39.8373 22.9C39.5506 22.8333 39.2606 22.76 38.9673 22.68C38.6739 22.5933 38.4239 22.45 38.2173 22.25C38.0106 22.0433 37.9073 21.7733 37.9073 21.44C37.9073 21.0467 38.0673 20.7167 38.3873 20.45C38.7139 20.1833 39.1539 20.05 39.7073 20.05C40.4339 20.05 41.0306 20.2833 41.4973 20.75L41.1473 21.27C40.8073 20.8633 40.3273 20.66 39.7073 20.66C39.3806 20.66 39.1206 20.7333 38.9273 20.88C38.7339 21.02 38.6373 21.2 38.6373 21.42C38.6373 21.6133 38.7406 21.7667 38.9473 21.88C39.1539 21.9867 39.4006 22.0733 39.6873 22.14C39.9806 22.2 40.2739 22.2733 40.5673 22.36C40.8606 22.4467 41.1106 22.6 41.3173 22.82C41.5239 23.0333 41.6273 23.3133 41.6273 23.66C41.6273 24.0867 41.4606 24.4367 41.1273 24.71C40.7939 24.9833 40.3273 25.12 39.7273 25.12ZM49.4257 25H48.6757V21.72C48.6757 21.0533 48.379 20.72 47.7857 20.72C47.5457 20.72 47.3057 20.7933 47.0657 20.94C46.8257 21.0867 46.639 21.26 46.5057 21.46V25H45.7557V21.72C45.7557 21.0533 45.459 20.72 44.8657 20.72C44.6324 20.72 44.3957 20.7933 44.1557 20.94C43.9224 21.0867 43.7357 21.2633 43.5957 21.47V25H42.8457V20.17H43.5957V20.87C43.7157 20.6833 43.9257 20.5 44.2257 20.32C44.5257 20.14 44.8357 20.05 45.1557 20.05C45.509 20.05 45.7957 20.1333 46.0157 20.3C46.2357 20.4667 46.3824 20.6833 46.4557 20.95C46.6024 20.71 46.8257 20.5 47.1257 20.32C47.4257 20.14 47.7424 20.05 48.0757 20.05C48.9757 20.05 49.4257 20.5367 49.4257 21.51V25ZM54.7619 24.39C54.3285 24.8767 53.7519 25.12 53.0319 25.12C52.3119 25.12 51.7319 24.8767 51.2919 24.39C50.8585 23.9033 50.6419 23.3 50.6419 22.58C50.6419 21.86 50.8585 21.26 51.2919 20.78C51.7319 20.2933 52.3119 20.05 53.0319 20.05C53.7519 20.05 54.3285 20.2933 54.7619 20.78C55.2019 21.26 55.4219 21.86 55.4219 22.58C55.4219 23.3 55.2019 23.9033 54.7619 24.39ZM51.8519 23.91C52.1452 24.27 52.5385 24.45 53.0319 24.45C53.5252 24.45 53.9152 24.27 54.2019 23.91C54.4885 23.5433 54.6319 23.1 54.6319 22.58C54.6319 22.06 54.4885 21.62 54.2019 21.26C53.9152 20.9 53.5252 20.72 53.0319 20.72C52.5385 20.72 52.1452 20.9033 51.8519 21.27C51.5652 21.63 51.4219 22.0667 51.4219 22.58C51.4219 23.1 51.5652 23.5433 51.8519 23.91ZM60.8945 25H60.1445V24.28C59.7312 24.84 59.1879 25.12 58.5145 25.12C57.8745 25.12 57.3545 24.8933 56.9545 24.44C56.5612 23.98 56.3645 23.3633 56.3645 22.59C56.3645 21.8233 56.5612 21.21 56.9545 20.75C57.3545 20.2833 57.8745 20.05 58.5145 20.05C59.1812 20.05 59.7245 20.3333 60.1445 20.9V18.33H60.8945V25ZM58.6945 24.45C58.9879 24.45 59.2679 24.3767 59.5345 24.23C59.8012 24.0833 60.0045 23.9033 60.1445 23.69V21.5C60.0045 21.28 59.7979 21.0967 59.5245 20.95C59.2579 20.7967 58.9812 20.72 58.6945 20.72C58.2212 20.72 57.8445 20.8967 57.5645 21.25C57.2845 21.5967 57.1445 22.0433 57.1445 22.59C57.1445 23.1367 57.2845 23.5833 57.5645 23.93C57.8445 24.2767 58.2212 24.45 58.6945 24.45ZM65.3446 19.48C65.2113 19.48 65.0946 19.4333 64.9946 19.34C64.8946 19.24 64.8446 19.12 64.8446 18.98C64.8446 18.84 64.8946 18.72 64.9946 18.62C65.0946 18.52 65.2113 18.47 65.3446 18.47C65.4846 18.47 65.6046 18.52 65.7046 18.62C65.8046 18.72 65.8546 18.84 65.8546 18.98C65.8546 19.12 65.8046 19.24 65.7046 19.34C65.6046 19.4333 65.4846 19.48 65.3446 19.48ZM65.7246 25H64.9746V20.17H65.7246V25ZM67.9707 25H67.2207V20.17H67.9707V20.95C68.4174 20.3633 68.954 20.07 69.5807 20.07V20.84C69.4874 20.82 69.3874 20.81 69.2807 20.81C69.054 20.81 68.8074 20.89 68.5407 21.05C68.274 21.21 68.084 21.3867 67.9707 21.58V25ZM74.5315 25H73.7815V24.32C73.5815 24.5467 73.3282 24.7367 73.0215 24.89C72.7215 25.0433 72.4015 25.12 72.0615 25.12C71.0348 25.12 70.5215 24.6067 70.5215 23.58V20.17H71.2715V23.35C71.2715 23.75 71.3615 24.0333 71.5415 24.2C71.7282 24.3667 71.9982 24.45 72.3515 24.45C72.6315 24.45 72.9015 24.38 73.1615 24.24C73.4282 24.1 73.6348 23.9267 73.7815 23.72V20.17H74.5315V25ZM76.7793 25H76.0293V20.17H76.7793V20.95C77.226 20.3633 77.7626 20.07 78.3893 20.07V20.84C78.296 20.82 78.196 20.81 78.0893 20.81C77.8626 20.81 77.616 20.89 77.3493 21.05C77.0826 21.21 76.8926 21.3867 76.7793 21.58V25ZM81.5101 25.12C80.7901 25.12 80.2001 24.8867 79.7401 24.42C79.2801 23.9467 79.0501 23.3333 79.0501 22.58C79.0501 21.8733 79.2767 21.2767 79.7301 20.79C80.1834 20.2967 80.7501 20.05 81.4301 20.05C82.1434 20.05 82.7067 20.2967 83.1201 20.79C83.5401 21.2767 83.7501 21.8933 83.7501 22.64V22.83H79.8401C79.8734 23.3033 80.0467 23.7 80.3601 24.02C80.6734 24.34 81.0801 24.5 81.5801 24.5C82.1801 24.5 82.6767 24.2967 83.0701 23.89L83.4301 24.38C82.9367 24.8733 82.2967 25.12 81.5101 25.12ZM83.0101 22.28C83.0034 21.8667 82.8634 21.4967 82.5901 21.17C82.3167 20.8367 81.9267 20.67 81.4201 20.67C80.9401 20.67 80.5601 20.8333 80.2801 21.16C80.0067 21.4867 79.8601 21.86 79.8401 22.28H83.0101ZM91.553 25H90.803V24.32C90.603 24.5467 90.3496 24.7367 90.043 24.89C89.743 25.0433 89.423 25.12 89.083 25.12C88.0563 25.12 87.543 24.6067 87.543 23.58V20.17H88.293V23.35C88.293 23.75 88.383 24.0333 88.563 24.2C88.7496 24.3667 89.0196 24.45 89.373 24.45C89.653 24.45 89.923 24.38 90.183 24.24C90.4496 24.1 90.6563 23.9267 90.803 23.72V20.17H91.553V25ZM93.8008 25H93.0508V18.33H93.8008V25ZM96.0469 25H95.2969V18.33H96.0469V25ZM101.313 25H100.563V24.45C100.156 24.8967 99.623 25.12 98.963 25.12C98.5163 25.12 98.123 24.9767 97.783 24.69C97.443 24.4033 97.273 24.0133 97.273 23.52C97.273 23.0133 97.4396 22.6233 97.773 22.35C98.113 22.07 98.5096 21.93 98.963 21.93C99.6496 21.93 100.183 22.15 100.563 22.59V21.72C100.563 21.4 100.45 21.15 100.223 20.97C99.9963 20.79 99.703 20.7 99.343 20.7C98.7763 20.7 98.283 20.9233 97.863 21.37L97.513 20.85C98.0263 20.3167 98.6696 20.05 99.443 20.05C99.9963 20.05 100.446 20.1833 100.793 20.45C101.14 20.7167 101.313 21.1267 101.313 21.68V25ZM99.233 24.58C99.833 24.58 100.276 24.38 100.563 23.98V23.07C100.276 22.67 99.833 22.47 99.233 22.47C98.8863 22.47 98.5996 22.57 98.373 22.77C98.153 22.9633 98.043 23.2167 98.043 23.53C98.043 23.8367 98.153 24.09 98.373 24.29C98.5996 24.4833 98.8863 24.58 99.233 24.58ZM109.396 25H108.646V21.72C108.646 21.0533 108.35 20.72 107.756 20.72C107.516 20.72 107.276 20.7933 107.036 20.94C106.796 21.0867 106.61 21.26 106.476 21.46V25H105.726V21.72C105.726 21.0533 105.43 20.72 104.836 20.72C104.603 20.72 104.366 20.7933 104.126 20.94C103.893 21.0867 103.706 21.2633 103.566 21.47V25H102.816V20.17H103.566V20.87C103.686 20.6833 103.896 20.5 104.196 20.32C104.496 20.14 104.806 20.05 105.126 20.05C105.48 20.05 105.766 20.1333 105.986 20.3C106.206 20.4667 106.353 20.6833 106.426 20.95C106.573 20.71 106.796 20.5 107.096 20.32C107.396 20.14 107.713 20.05 108.046 20.05C108.946 20.05 109.396 20.5367 109.396 21.51V25ZM113.023 25.12C112.309 25.12 111.729 24.88 111.283 24.4C110.836 23.9133 110.613 23.3067 110.613 22.58C110.613 21.8533 110.836 21.25 111.283 20.77C111.729 20.29 112.309 20.05 113.023 20.05C113.769 20.05 114.359 20.33 114.793 20.89L114.293 21.35C113.986 20.93 113.576 20.72 113.063 20.72C112.556 20.72 112.149 20.8933 111.843 21.24C111.543 21.5867 111.393 22.0333 111.393 22.58C111.393 23.1267 111.543 23.5767 111.843 23.93C112.149 24.2767 112.556 24.45 113.063 24.45C113.569 24.45 113.979 24.24 114.293 23.82L114.793 24.28C114.359 24.84 113.769 25.12 113.023 25.12ZM119.684 24.39C119.25 24.8767 118.674 25.12 117.954 25.12C117.234 25.12 116.654 24.8767 116.214 24.39C115.78 23.9033 115.564 23.3 115.564 22.58C115.564 21.86 115.78 21.26 116.214 20.78C116.654 20.2933 117.234 20.05 117.954 20.05C118.674 20.05 119.25 20.2933 119.684 20.78C120.124 21.26 120.344 21.86 120.344 22.58C120.344 23.3 120.124 23.9033 119.684 24.39ZM116.774 23.91C117.067 24.27 117.46 24.45 117.954 24.45C118.447 24.45 118.837 24.27 119.124 23.91C119.41 23.5433 119.554 23.1 119.554 22.58C119.554 22.06 119.41 21.62 119.124 21.26C118.837 20.9 118.447 20.72 117.954 20.72C117.46 20.72 117.067 20.9033 116.774 21.27C116.487 21.63 116.344 22.0667 116.344 22.58C116.344 23.1 116.487 23.5433 116.774 23.91ZM126.325 25.12C125.605 25.12 125.015 24.8867 124.555 24.42C124.095 23.9467 123.865 23.3333 123.865 22.58C123.865 21.8733 124.091 21.2767 124.545 20.79C124.998 20.2967 125.565 20.05 126.245 20.05C126.958 20.05 127.521 20.2967 127.935 20.79C128.355 21.2767 128.565 21.8933 128.565 22.64V22.83H124.655C124.688 23.3033 124.861 23.7 125.175 24.02C125.488 24.34 125.895 24.5 126.395 24.5C126.995 24.5 127.491 24.2967 127.885 23.89L128.245 24.38C127.751 24.8733 127.111 25.12 126.325 25.12ZM127.825 22.28C127.818 21.8667 127.678 21.4967 127.405 21.17C127.131 20.8367 126.741 20.67 126.235 20.67C125.755 20.67 125.375 20.8333 125.095 21.16C124.821 21.4867 124.675 21.86 124.655 22.28H127.825ZM130.149 19.48C130.016 19.48 129.899 19.4333 129.799 19.34C129.699 19.24 129.649 19.12 129.649 18.98C129.649 18.84 129.699 18.72 129.799 18.62C129.899 18.52 130.016 18.47 130.149 18.47C130.289 18.47 130.409 18.52 130.509 18.62C130.609 18.72 130.659 18.84 130.659 18.98C130.659 19.12 130.609 19.24 130.509 19.34C130.409 19.4333 130.289 19.48 130.149 19.48ZM130.529 25H129.779V20.17H130.529V25ZM136.035 25H135.285V24.32C135.085 24.5467 134.832 24.7367 134.525 24.89C134.225 25.0433 133.905 25.12 133.565 25.12C132.539 25.12 132.025 24.6067 132.025 23.58V20.17H132.775V23.35C132.775 23.75 132.865 24.0333 133.045 24.2C133.232 24.3667 133.502 24.45 133.855 24.45C134.135 24.45 134.405 24.38 134.665 24.24C134.932 24.1 135.139 23.9267 135.285 23.72V20.17H136.035V25ZM139.063 25.12C138.243 25.12 137.593 24.8667 137.113 24.36L137.503 23.82C137.67 24.0133 137.897 24.1767 138.183 24.31C138.477 24.4433 138.78 24.51 139.093 24.51C139.453 24.51 139.733 24.4333 139.933 24.28C140.133 24.1267 140.233 23.9267 140.233 23.68C140.233 23.4667 140.13 23.3 139.923 23.18C139.717 23.0533 139.467 22.96 139.173 22.9C138.887 22.8333 138.597 22.76 138.303 22.68C138.01 22.5933 137.76 22.45 137.553 22.25C137.347 22.0433 137.243 21.7733 137.243 21.44C137.243 21.0467 137.403 20.7167 137.723 20.45C138.05 20.1833 138.49 20.05 139.043 20.05C139.77 20.05 140.367 20.2833 140.833 20.75L140.483 21.27C140.143 20.8633 139.663 20.66 139.043 20.66C138.717 20.66 138.457 20.7333 138.263 20.88C138.07 21.02 137.973 21.2 137.973 21.42C137.973 21.6133 138.077 21.7667 138.283 21.88C138.49 21.9867 138.737 22.0733 139.023 22.14C139.317 22.2 139.61 22.2733 139.903 22.36C140.197 22.4467 140.447 22.6 140.653 22.82C140.86 23.0333 140.963 23.3133 140.963 23.66C140.963 24.0867 140.797 24.4367 140.463 24.71C140.13 24.9833 139.663 25.12 139.063 25.12ZM148.762 25H148.012V21.72C148.012 21.0533 147.715 20.72 147.122 20.72C146.882 20.72 146.642 20.7933 146.402 20.94C146.162 21.0867 145.975 21.26 145.842 21.46V25H145.092V21.72C145.092 21.0533 144.795 20.72 144.202 20.72C143.968 20.72 143.732 20.7933 143.492 20.94C143.258 21.0867 143.072 21.2633 142.932 21.47V25H142.182V20.17H142.932V20.87C143.052 20.6833 143.262 20.5 143.562 20.32C143.862 20.14 144.172 20.05 144.492 20.05C144.845 20.05 145.132 20.1333 145.352 20.3C145.572 20.4667 145.718 20.6833 145.792 20.95C145.938 20.71 146.162 20.5 146.462 20.32C146.762 20.14 147.078 20.05 147.412 20.05C148.312 20.05 148.762 20.5367 148.762 21.51V25ZM154.098 24.39C153.664 24.8767 153.088 25.12 152.368 25.12C151.648 25.12 151.068 24.8767 150.628 24.39C150.194 23.9033 149.978 23.3 149.978 22.58C149.978 21.86 150.194 21.26 150.628 20.78C151.068 20.2933 151.648 20.05 152.368 20.05C153.088 20.05 153.664 20.2933 154.098 20.78C154.538 21.26 154.758 21.86 154.758 22.58C154.758 23.3 154.538 23.9033 154.098 24.39ZM151.188 23.91C151.481 24.27 151.874 24.45 152.368 24.45C152.861 24.45 153.251 24.27 153.538 23.91C153.824 23.5433 153.968 23.1 153.968 22.58C153.968 22.06 153.824 21.62 153.538 21.26C153.251 20.9 152.861 20.72 152.368 20.72C151.874 20.72 151.481 20.9033 151.188 21.27C150.901 21.63 150.758 22.0667 150.758 22.58C150.758 23.1 150.901 23.5433 151.188 23.91ZM160.23 25H159.48V24.28C159.067 24.84 158.524 25.12 157.85 25.12C157.21 25.12 156.69 24.8933 156.29 24.44C155.897 23.98 155.7 23.3633 155.7 22.59C155.7 21.8233 155.897 21.21 156.29 20.75C156.69 20.2833 157.21 20.05 157.85 20.05C158.517 20.05 159.06 20.3333 159.48 20.9V18.33H160.23V25ZM158.03 24.45C158.324 24.45 158.604 24.3767 158.87 24.23C159.137 24.0833 159.34 23.9033 159.48 23.69V21.5C159.34 21.28 159.134 21.0967 158.86 20.95C158.594 20.7967 158.317 20.72 158.03 20.72C157.557 20.72 157.18 20.8967 156.9 21.25C156.62 21.5967 156.48 22.0433 156.48 22.59C156.48 23.1367 156.62 23.5833 156.9 23.93C157.18 24.2767 157.557 24.45 158.03 24.45ZM31.33 40H30.58V36.72C30.58 36.0533 30.2833 35.72 29.69 35.72C29.45 35.72 29.21 35.7933 28.97 35.94C28.73 36.0867 28.5433 36.26 28.41 36.46V40H27.66V36.72C27.66 36.0533 27.3633 35.72 26.77 35.72C26.5367 35.72 26.3 35.7933 26.06 35.94C25.8267 36.0867 25.64 36.2633 25.5 36.47V40H24.75V35.17H25.5V35.87C25.62 35.6833 25.83 35.5 26.13 35.32C26.43 35.14 26.74 35.05 27.06 35.05C27.4133 35.05 27.7 35.1333 27.92 35.3C28.14 35.4667 28.2867 35.6833 28.36 35.95C28.5067 35.71 28.73 35.5 29.03 35.32C29.33 35.14 29.6467 35.05 29.98 35.05C30.88 35.05 31.33 35.5367 31.33 36.51V40ZM36.6662 39.39C36.2328 39.8767 35.6562 40.12 34.9362 40.12C34.2162 40.12 33.6362 39.8767 33.1962 39.39C32.7628 38.9033 32.5462 38.3 32.5462 37.58C32.5462 36.86 32.7628 36.26 33.1962 35.78C33.6362 35.2933 34.2162 35.05 34.9362 35.05C35.6562 35.05 36.2328 35.2933 36.6662 35.78C37.1062 36.26 37.3262 36.86 37.3262 37.58C37.3262 38.3 37.1062 38.9033 36.6662 39.39ZM33.7562 38.91C34.0495 39.27 34.4428 39.45 34.9362 39.45C35.4295 39.45 35.8195 39.27 36.1062 38.91C36.3928 38.5433 36.5362 38.1 36.5362 37.58C36.5362 37.06 36.3928 36.62 36.1062 36.26C35.8195 35.9 35.4295 35.72 34.9362 35.72C34.4428 35.72 34.0495 35.9033 33.7562 36.27C33.4695 36.63 33.3262 37.0667 33.3262 37.58C33.3262 38.1 33.4695 38.5433 33.7562 38.91ZM39.2988 40H38.5488V33.33H39.2988V40ZM41.5449 40H40.7949V33.33H41.5449V40ZM43.411 34.48C43.2777 34.48 43.161 34.4333 43.061 34.34C42.961 34.24 42.911 34.12 42.911 33.98C42.911 33.84 42.961 33.72 43.061 33.62C43.161 33.52 43.2777 33.47 43.411 33.47C43.551 33.47 43.671 33.52 43.771 33.62C43.871 33.72 43.921 33.84 43.921 33.98C43.921 34.12 43.871 34.24 43.771 34.34C43.671 34.4333 43.551 34.48 43.411 34.48ZM43.791 40H43.041V35.17H43.791V40ZM46.5071 40.12C46.1538 40.12 45.8871 40.0233 45.7071 39.83C45.5271 39.6367 45.4371 39.3567 45.4371 38.99V35.83H44.6371V35.17H45.4371V33.85H46.1871V35.17H47.1671V35.83H46.1871V38.83C46.1871 39.0167 46.2271 39.1667 46.3071 39.28C46.3938 39.3933 46.5171 39.45 46.6771 39.45C46.8971 39.45 47.0671 39.3833 47.1871 39.25L47.4071 39.81C47.1871 40.0167 46.8871 40.12 46.5071 40.12ZM52.9847 40.12C52.2647 40.12 51.6747 39.8867 51.2147 39.42C50.7547 38.9467 50.5247 38.3333 50.5247 37.58C50.5247 36.8733 50.7514 36.2767 51.2047 35.79C51.658 35.2967 52.2247 35.05 52.9047 35.05C53.618 35.05 54.1814 35.2967 54.5947 35.79C55.0147 36.2767 55.2247 36.8933 55.2247 37.64V37.83H51.3147C51.348 38.3033 51.5214 38.7 51.8347 39.02C52.148 39.34 52.5547 39.5 53.0547 39.5C53.6547 39.5 54.1514 39.2967 54.5447 38.89L54.9047 39.38C54.4114 39.8733 53.7714 40.12 52.9847 40.12ZM54.4847 37.28C54.478 36.8667 54.338 36.4967 54.0647 36.17C53.7914 35.8367 53.4014 35.67 52.8947 35.67C52.4147 35.67 52.0347 35.8333 51.7547 36.16C51.4814 36.4867 51.3347 36.86 51.3147 37.28H54.4847ZM60.4395 40H59.5695L58.1195 38.02L56.6695 40H55.8095L57.6595 37.52L55.9095 35.17H56.7795L58.1195 37.01L59.4595 35.17H60.3295L58.5795 37.52L60.4395 40ZM65.9009 39.45C66.1942 39.45 66.4742 39.3767 66.7409 39.23C67.0142 39.0767 67.2142 38.89 67.3409 38.67V36.49C67.2142 36.2767 67.0142 36.0967 66.7409 35.95C66.4742 35.7967 66.1942 35.72 65.9009 35.72C65.4275 35.72 65.0509 35.8933 64.7709 36.24C64.4975 36.5867 64.3609 37.0333 64.3609 37.58C64.3609 38.1267 64.4975 38.5767 64.7709 38.93C65.0509 39.2767 65.4275 39.45 65.9009 39.45ZM65.7209 40.12C65.0809 40.12 64.5609 39.89 64.1609 39.43C63.7675 38.97 63.5709 38.3533 63.5709 37.58C63.5709 36.8067 63.7675 36.1933 64.1609 35.74C64.5609 35.28 65.0809 35.05 65.7209 35.05C66.0542 35.05 66.3642 35.1267 66.6509 35.28C66.9375 35.4333 67.1675 35.6367 67.3409 35.89V35.17H68.0909V41.84H67.3409V39.27C66.9342 39.8367 66.3942 40.12 65.7209 40.12ZM73.6135 40H72.8635V39.32C72.6635 39.5467 72.4102 39.7367 72.1035 39.89C71.8035 40.0433 71.4835 40.12 71.1435 40.12C70.1168 40.12 69.6035 39.6067 69.6035 38.58V35.17H70.3535V38.35C70.3535 38.75 70.4435 39.0333 70.6235 39.2C70.8102 39.3667 71.0802 39.45 71.4335 39.45C71.7135 39.45 71.9835 39.38 72.2435 39.24C72.5102 39.1 72.7168 38.9267 72.8635 38.72V35.17H73.6135V40ZM75.4813 34.48C75.348 34.48 75.2313 34.4333 75.1313 34.34C75.0313 34.24 74.9813 34.12 74.9813 33.98C74.9813 33.84 75.0313 33.72 75.1313 33.62C75.2313 33.52 75.348 33.47 75.4813 33.47C75.6213 33.47 75.7413 33.52 75.8413 33.62C75.9413 33.72 75.9913 33.84 75.9913 33.98C75.9913 34.12 75.9413 34.24 75.8413 34.34C75.7413 34.4333 75.6213 34.48 75.4813 34.48ZM75.8613 40H75.1113V35.17H75.8613V40ZM78.1474 39.94C78.0408 40.0467 77.9108 40.1 77.7574 40.1C77.6041 40.1 77.4741 40.0467 77.3674 39.94C77.2608 39.8333 77.2074 39.7033 77.2074 39.55C77.2074 39.3967 77.2608 39.2667 77.3674 39.16C77.4741 39.0533 77.6041 39 77.7574 39C77.9108 39 78.0408 39.0533 78.1474 39.16C78.2541 39.2667 78.3074 39.3967 78.3074 39.55C78.3074 39.7033 78.2541 39.8333 78.1474 39.94ZM88.8002 40H87.9702V34.51L85.7002 40H85.3602L83.1002 34.51V40H82.2702V33.33H83.4602L85.5302 38.35L87.6102 33.33H88.8002V40ZM94.1662 39.39C93.7328 39.8767 93.1562 40.12 92.4362 40.12C91.7162 40.12 91.1362 39.8767 90.6962 39.39C90.2628 38.9033 90.0462 38.3 90.0462 37.58C90.0462 36.86 90.2628 36.26 90.6962 35.78C91.1362 35.2933 91.7162 35.05 92.4362 35.05C93.1562 35.05 93.7328 35.2933 94.1662 35.78C94.6062 36.26 94.8262 36.86 94.8262 37.58C94.8262 38.3 94.6062 38.9033 94.1662 39.39ZM91.2562 38.91C91.5495 39.27 91.9428 39.45 92.4362 39.45C92.9295 39.45 93.3195 39.27 93.6062 38.91C93.8928 38.5433 94.0362 38.1 94.0362 37.58C94.0362 37.06 93.8928 36.62 93.6062 36.26C93.3195 35.9 92.9295 35.72 92.4362 35.72C91.9428 35.72 91.5495 35.9033 91.2562 36.27C90.9695 36.63 90.8262 37.0667 90.8262 37.58C90.8262 38.1 90.9695 38.5433 91.2562 38.91ZM96.7988 40H96.0488V33.33H96.7988V40ZM99.0449 40H98.2949V33.33H99.0449V40ZM100.911 34.48C100.778 34.48 100.661 34.4333 100.561 34.34C100.461 34.24 100.411 34.12 100.411 33.98C100.411 33.84 100.461 33.72 100.561 33.62C100.661 33.52 100.778 33.47 100.911 33.47C101.051 33.47 101.171 33.52 101.271 33.62C101.371 33.72 101.421 33.84 101.421 33.98C101.421 34.12 101.371 34.24 101.271 34.34C101.171 34.4333 101.051 34.48 100.911 34.48ZM101.291 40H100.541V35.17H101.291V40ZM104.007 40.12C103.654 40.12 103.387 40.0233 103.207 39.83C103.027 39.6367 102.937 39.3567 102.937 38.99V35.83H102.137V35.17H102.937V33.85H103.687V35.17H104.667V35.83H103.687V38.83C103.687 39.0167 103.727 39.1667 103.807 39.28C103.894 39.3933 104.017 39.45 104.177 39.45C104.397 39.45 104.567 39.3833 104.687 39.25L104.907 39.81C104.687 40.0167 104.387 40.12 104.007 40.12ZM110.415 40H109.595L107.585 35.17H108.395L110.005 39.13L111.605 35.17H112.425L110.415 40ZM115.387 40.12C114.667 40.12 114.077 39.8867 113.617 39.42C113.157 38.9467 112.927 38.3333 112.927 37.58C112.927 36.8733 113.154 36.2767 113.607 35.79C114.06 35.2967 114.627 35.05 115.307 35.05C116.02 35.05 116.584 35.2967 116.997 35.79C117.417 36.2767 117.627 36.8933 117.627 37.64V37.83H113.717C113.75 38.3033 113.924 38.7 114.237 39.02C114.55 39.34 114.957 39.5 115.457 39.5C116.057 39.5 116.554 39.2967 116.947 38.89L117.307 39.38C116.814 39.8733 116.174 40.12 115.387 40.12ZM116.887 37.28C116.88 36.8667 116.74 36.4967 116.467 36.17C116.194 35.8367 115.804 35.67 115.297 35.67C114.817 35.67 114.437 35.8333 114.157 36.16C113.884 36.4867 113.737 36.86 113.717 37.28H116.887ZM122.852 40H122.102V36.84C122.102 36.4333 122.008 36.1467 121.822 35.98C121.635 35.8067 121.368 35.72 121.022 35.72C120.742 35.72 120.468 35.7933 120.202 35.94C119.942 36.0867 119.738 36.2633 119.592 36.47V40H118.842V35.17H119.592V35.87C119.778 35.65 120.028 35.46 120.342 35.3C120.655 35.1333 120.978 35.05 121.312 35.05C122.338 35.05 122.852 35.57 122.852 36.61V40ZM124.72 34.48C124.586 34.48 124.47 34.4333 124.37 34.34C124.27 34.24 124.22 34.12 124.22 33.98C124.22 33.84 124.27 33.72 124.37 33.62C124.47 33.52 124.586 33.47 124.72 33.47C124.86 33.47 124.98 33.52 125.08 33.62C125.18 33.72 125.23 33.84 125.23 33.98C125.23 34.12 125.18 34.24 125.08 34.34C124.98 34.4333 124.86 34.48 124.72 34.48ZM125.1 40H124.35V35.17H125.1V40ZM130.366 40H129.616V39.45C129.209 39.8967 128.676 40.12 128.016 40.12C127.569 40.12 127.176 39.9767 126.836 39.69C126.496 39.4033 126.326 39.0133 126.326 38.52C126.326 38.0133 126.492 37.6233 126.826 37.35C127.166 37.07 127.562 36.93 128.016 36.93C128.702 36.93 129.236 37.15 129.616 37.59V36.72C129.616 36.4 129.502 36.15 129.276 35.97C129.049 35.79 128.756 35.7 128.396 35.7C127.829 35.7 127.336 35.9233 126.916 36.37L126.566 35.85C127.079 35.3167 127.722 35.05 128.496 35.05C129.049 35.05 129.499 35.1833 129.846 35.45C130.192 35.7167 130.366 36.1267 130.366 36.68V40ZM128.286 39.58C128.886 39.58 129.329 39.38 129.616 38.98V38.07C129.329 37.67 128.886 37.47 128.286 37.47C127.939 37.47 127.652 37.57 127.426 37.77C127.206 37.9633 127.096 38.2167 127.096 38.53C127.096 38.8367 127.206 39.09 127.426 39.29C127.652 39.4833 127.939 39.58 128.286 39.58ZM138.449 40H137.699V36.72C137.699 36.0533 137.402 35.72 136.809 35.72C136.569 35.72 136.329 35.7933 136.089 35.94C135.849 36.0867 135.662 36.26 135.529 36.46V40H134.779V36.72C134.779 36.0533 134.482 35.72 133.889 35.72C133.656 35.72 133.419 35.7933 133.179 35.94C132.946 36.0867 132.759 36.2633 132.619 36.47V40H131.869V35.17H132.619V35.87C132.739 35.6833 132.949 35.5 133.249 35.32C133.549 35.14 133.859 35.05 134.179 35.05C134.532 35.05 134.819 35.1333 135.039 35.3C135.259 35.4667 135.406 35.6833 135.479 35.95C135.626 35.71 135.849 35.5 136.149 35.32C136.449 35.14 136.766 35.05 137.099 35.05C137.999 35.05 138.449 35.5367 138.449 36.51V40ZM143.743 40.12C143.39 40.12 143.123 40.0233 142.943 39.83C142.763 39.6367 142.673 39.3567 142.673 38.99V35.83H141.873V35.17H142.673V33.85H143.423V35.17H144.403V35.83H143.423V38.83C143.423 39.0167 143.463 39.1667 143.543 39.28C143.63 39.3933 143.753 39.45 143.913 39.45C144.133 39.45 144.303 39.3833 144.423 39.25L144.643 39.81C144.423 40.0167 144.123 40.12 143.743 40.12ZM147.643 40.12C146.923 40.12 146.333 39.8867 145.873 39.42C145.413 38.9467 145.183 38.3333 145.183 37.58C145.183 36.8733 145.41 36.2767 145.863 35.79C146.316 35.2967 146.883 35.05 147.563 35.05C148.276 35.05 148.84 35.2967 149.253 35.79C149.673 36.2767 149.883 36.8933 149.883 37.64V37.83H145.973C146.006 38.3033 146.18 38.7 146.493 39.02C146.806 39.34 147.213 39.5 147.713 39.5C148.313 39.5 148.81 39.2967 149.203 38.89L149.563 39.38C149.07 39.8733 148.43 40.12 147.643 40.12ZM149.143 37.28C149.136 36.8667 148.996 36.4967 148.723 36.17C148.45 35.8367 148.06 35.67 147.553 35.67C147.073 35.67 146.693 35.8333 146.413 36.16C146.14 36.4867 145.993 36.86 145.973 37.28H149.143ZM157.678 40H156.928V36.72C156.928 36.0533 156.631 35.72 156.038 35.72C155.798 35.72 155.558 35.7933 155.318 35.94C155.078 36.0867 154.891 36.26 154.758 36.46V40H154.008V36.72C154.008 36.0533 153.711 35.72 153.118 35.72C152.884 35.72 152.648 35.7933 152.408 35.94C152.174 36.0867 151.988 36.2633 151.848 36.47V40H151.098V35.17H151.848V35.87C151.968 35.6833 152.178 35.5 152.478 35.32C152.778 35.14 153.088 35.05 153.408 35.05C153.761 35.05 154.048 35.1333 154.268 35.3C154.488 35.4667 154.634 35.6833 154.708 35.95C154.854 35.71 155.078 35.5 155.378 35.32C155.678 35.14 155.994 35.05 156.328 35.05C157.228 35.05 157.678 35.5367 157.678 36.51V40ZM161.554 40.12C160.874 40.12 160.33 39.8367 159.924 39.27V41.84H159.174V35.17H159.924V35.89C160.104 35.6367 160.337 35.4333 160.624 35.28C160.91 35.1267 161.22 35.05 161.554 35.05C162.194 35.05 162.71 35.28 163.104 35.74C163.504 36.1933 163.704 36.8067 163.704 37.58C163.704 38.3533 163.504 38.97 163.104 39.43C162.71 39.89 162.194 40.12 161.554 40.12ZM161.364 39.45C161.837 39.45 162.214 39.2767 162.494 38.93C162.774 38.5767 162.914 38.1267 162.914 37.58C162.914 37.0333 162.774 36.5867 162.494 36.24C162.214 35.8933 161.837 35.72 161.364 35.72C161.077 35.72 160.797 35.7967 160.524 35.95C160.257 36.0967 160.057 36.2767 159.924 36.49V38.67C160.057 38.89 160.257 39.0767 160.524 39.23C160.797 39.3767 161.077 39.45 161.364 39.45ZM168.736 39.39C168.303 39.8767 167.726 40.12 167.006 40.12C166.286 40.12 165.706 39.8767 165.266 39.39C164.833 38.9033 164.616 38.3 164.616 37.58C164.616 36.86 164.833 36.26 165.266 35.78C165.706 35.2933 166.286 35.05 167.006 35.05C167.726 35.05 168.303 35.2933 168.736 35.78C169.176 36.26 169.396 36.86 169.396 37.58C169.396 38.3 169.176 38.9033 168.736 39.39ZM165.826 38.91C166.12 39.27 166.513 39.45 167.006 39.45C167.5 39.45 167.89 39.27 168.176 38.91C168.463 38.5433 168.606 38.1 168.606 37.58C168.606 37.06 168.463 36.62 168.176 36.26C167.89 35.9 167.5 35.72 167.006 35.72C166.513 35.72 166.12 35.9033 165.826 36.27C165.54 36.63 165.396 37.0667 165.396 37.58C165.396 38.1 165.54 38.5433 165.826 38.91ZM171.369 40H170.619V35.17H171.369V35.95C171.816 35.3633 172.352 35.07 172.979 35.07V35.84C172.886 35.82 172.786 35.81 172.679 35.81C172.452 35.81 172.206 35.89 171.939 36.05C171.672 36.21 171.482 36.3867 171.369 36.58V40ZM28.52 55H27.77V54.45C27.3633 54.8967 26.83 55.12 26.17 55.12C25.7233 55.12 25.33 54.9767 24.99 54.69C24.65 54.4033 24.48 54.0133 24.48 53.52C24.48 53.0133 24.6467 52.6233 24.98 52.35C25.32 52.07 25.7167 51.93 26.17 51.93C26.8567 51.93 27.39 52.15 27.77 52.59V51.72C27.77 51.4 27.6567 51.15 27.43 50.97C27.2033 50.79 26.91 50.7 26.55 50.7C25.9833 50.7 25.49 50.9233 25.07 51.37L24.72 50.85C25.2333 50.3167 25.8767 50.05 26.65 50.05C27.2033 50.05 27.6533 50.1833 28 50.45C28.3467 50.7167 28.52 51.1267 28.52 51.68V55ZM26.44 54.58C27.04 54.58 27.4833 54.38 27.77 53.98V53.07C27.4833 52.67 27.04 52.47 26.44 52.47C26.0933 52.47 25.8067 52.57 25.58 52.77C25.36 52.9633 25.25 53.2167 25.25 53.53C25.25 53.8367 25.36 54.09 25.58 54.29C25.8067 54.4833 26.0933 54.58 26.44 54.58ZM36.6034 55H35.8534V51.72C35.8534 51.0533 35.5568 50.72 34.9634 50.72C34.7234 50.72 34.4834 50.7933 34.2434 50.94C34.0034 51.0867 33.8168 51.26 33.6834 51.46V55H32.9334V51.72C32.9334 51.0533 32.6368 50.72 32.0434 50.72C31.8101 50.72 31.5734 50.7933 31.3334 50.94C31.1001 51.0867 30.9134 51.2633 30.7734 51.47V55H30.0234V50.17H30.7734V50.87C30.8934 50.6833 31.1034 50.5 31.4034 50.32C31.7034 50.14 32.0134 50.05 32.3334 50.05C32.6868 50.05 32.9734 50.1333 33.1934 50.3C33.4134 50.4667 33.5601 50.6833 33.6334 50.95C33.7801 50.71 34.0034 50.5 34.3034 50.32C34.6034 50.14 34.9201 50.05 35.2534 50.05C36.1534 50.05 36.6034 50.5367 36.6034 51.51V55ZM40.2796 55.12C39.5596 55.12 38.9696 54.8867 38.5096 54.42C38.0496 53.9467 37.8196 53.3333 37.8196 52.58C37.8196 51.8733 38.0463 51.2767 38.4996 50.79C38.9529 50.2967 39.5196 50.05 40.1996 50.05C40.9129 50.05 41.4763 50.2967 41.8896 50.79C42.3096 51.2767 42.5196 51.8933 42.5196 52.64V52.83H38.6096C38.6429 53.3033 38.8163 53.7 39.1296 54.02C39.4429 54.34 39.8496 54.5 40.3496 54.5C40.9496 54.5 41.4463 54.2967 41.8396 53.89L42.1996 54.38C41.7063 54.8733 41.0663 55.12 40.2796 55.12ZM41.7796 52.28C41.7729 51.8667 41.6329 51.4967 41.3596 51.17C41.0863 50.8367 40.6963 50.67 40.1896 50.67C39.7096 50.67 39.3296 50.8333 39.0496 51.16C38.7763 51.4867 38.6296 51.86 38.6096 52.28H41.7796ZM44.9544 55.12C44.601 55.12 44.3344 55.0233 44.1544 54.83C43.9744 54.6367 43.8844 54.3567 43.8844 53.99V50.83H43.0844V50.17H43.8844V48.85H44.6344V50.17H45.6144V50.83H44.6344V53.83C44.6344 54.0167 44.6744 54.1667 44.7544 54.28C44.841 54.3933 44.9644 54.45 45.1244 54.45C45.3444 54.45 45.5144 54.3833 45.6344 54.25L45.8544 54.81C45.6344 55.0167 45.3344 55.12 44.9544 55.12ZM51.362 55H50.542L48.532 50.17H49.342L50.952 54.13L52.552 50.17H53.372L51.362 55ZM56.3343 55.12C55.6143 55.12 55.0243 54.8867 54.5643 54.42C54.1043 53.9467 53.8743 53.3333 53.8743 52.58C53.8743 51.8733 54.101 51.2767 54.5543 50.79C55.0076 50.2967 55.5743 50.05 56.2543 50.05C56.9676 50.05 57.531 50.2967 57.9443 50.79C58.3643 51.2767 58.5743 51.8933 58.5743 52.64V52.83H54.6643C54.6976 53.3033 54.871 53.7 55.1843 54.02C55.4976 54.34 55.9043 54.5 56.4043 54.5C57.0043 54.5 57.501 54.2967 57.8943 53.89L58.2543 54.38C57.761 54.8733 57.121 55.12 56.3343 55.12ZM57.8343 52.28C57.8276 51.8667 57.6876 51.4967 57.4143 51.17C57.141 50.8367 56.751 50.67 56.2443 50.67C55.7643 50.67 55.3843 50.8333 55.1043 51.16C54.831 51.4867 54.6843 51.86 54.6643 52.28H57.8343ZM63.7991 55H63.0491V51.84C63.0491 51.4333 62.9557 51.1467 62.7691 50.98C62.5824 50.8067 62.3157 50.72 61.9691 50.72C61.6891 50.72 61.4157 50.7933 61.1491 50.94C60.8891 51.0867 60.6857 51.2633 60.5391 51.47V55H59.7891V50.17H60.5391V50.87C60.7257 50.65 60.9757 50.46 61.2891 50.3C61.6024 50.1333 61.9257 50.05 62.2591 50.05C63.2857 50.05 63.7991 50.57 63.7991 51.61V55ZM65.6669 49.48C65.5335 49.48 65.4169 49.4333 65.3169 49.34C65.2169 49.24 65.1669 49.12 65.1669 48.98C65.1669 48.84 65.2169 48.72 65.3169 48.62C65.4169 48.52 65.5335 48.47 65.6669 48.47C65.8069 48.47 65.9269 48.52 66.0269 48.62C66.1269 48.72 66.1769 48.84 66.1769 48.98C66.1769 49.12 66.1269 49.24 66.0269 49.34C65.9269 49.4333 65.8069 49.48 65.6669 49.48ZM66.0469 55H65.2969V50.17H66.0469V55ZM71.313 55H70.563V54.45C70.1563 54.8967 69.623 55.12 68.963 55.12C68.5163 55.12 68.123 54.9767 67.783 54.69C67.443 54.4033 67.273 54.0133 67.273 53.52C67.273 53.0133 67.4396 52.6233 67.773 52.35C68.113 52.07 68.5096 51.93 68.963 51.93C69.6496 51.93 70.183 52.15 70.563 52.59V51.72C70.563 51.4 70.4496 51.15 70.223 50.97C69.9963 50.79 69.703 50.7 69.343 50.7C68.7763 50.7 68.283 50.9233 67.863 51.37L67.513 50.85C68.0263 50.3167 68.6696 50.05 69.443 50.05C69.9963 50.05 70.4463 50.1833 70.793 50.45C71.1396 50.7167 71.313 51.1267 71.313 51.68V55ZM69.233 54.58C69.833 54.58 70.2763 54.38 70.563 53.98V53.07C70.2763 52.67 69.833 52.47 69.233 52.47C68.8863 52.47 68.5996 52.57 68.373 52.77C68.153 52.9633 68.043 53.2167 68.043 53.53C68.043 53.8367 68.153 54.09 68.373 54.29C68.5996 54.4833 68.8863 54.58 69.233 54.58ZM79.3964 55H78.6464V51.72C78.6464 51.0533 78.3497 50.72 77.7564 50.72C77.5164 50.72 77.2764 50.7933 77.0364 50.94C76.7964 51.0867 76.6097 51.26 76.4764 51.46V55H75.7264V51.72C75.7264 51.0533 75.4297 50.72 74.8364 50.72C74.6031 50.72 74.3664 50.7933 74.1264 50.94C73.8931 51.0867 73.7064 51.2633 73.5664 51.47V55H72.8164V50.17H73.5664V50.87C73.6864 50.6833 73.8964 50.5 74.1964 50.32C74.4964 50.14 74.8064 50.05 75.1264 50.05C75.4797 50.05 75.7664 50.1333 75.9864 50.3C76.2064 50.4667 76.3531 50.6833 76.4264 50.95C76.5731 50.71 76.7964 50.5 77.0964 50.32C77.3964 50.14 77.7131 50.05 78.0464 50.05C78.9464 50.05 79.3964 50.5367 79.3964 51.51V55ZM85.6507 55.12C84.9307 55.12 84.3407 54.8867 83.8807 54.42C83.4207 53.9467 83.1907 53.3333 83.1907 52.58C83.1907 51.8733 83.4174 51.2767 83.8707 50.79C84.324 50.2967 84.8907 50.05 85.5707 50.05C86.284 50.05 86.8474 50.2967 87.2607 50.79C87.6807 51.2767 87.8907 51.8933 87.8907 52.64V52.83H83.9807C84.014 53.3033 84.1874 53.7 84.5007 54.02C84.814 54.34 85.2207 54.5 85.7207 54.5C86.3207 54.5 86.8174 54.2967 87.2107 53.89L87.5707 54.38C87.0774 54.8733 86.4374 55.12 85.6507 55.12ZM87.1507 52.28C87.144 51.8667 87.004 51.4967 86.7307 51.17C86.4574 50.8367 86.0674 50.67 85.5607 50.67C85.0807 50.67 84.7007 50.8333 84.4207 51.16C84.1474 51.4867 84.0007 51.86 83.9807 52.28H87.1507ZM89.4755 49.48C89.3421 49.48 89.2255 49.4333 89.1255 49.34C89.0255 49.24 88.9755 49.12 88.9755 48.98C88.9755 48.84 89.0255 48.72 89.1255 48.62C89.2255 48.52 89.3421 48.47 89.4755 48.47C89.6155 48.47 89.7355 48.52 89.8355 48.62C89.9355 48.72 89.9855 48.84 89.9855 48.98C89.9855 49.12 89.9355 49.24 89.8355 49.34C89.7355 49.4333 89.6155 49.48 89.4755 49.48ZM89.8555 55H89.1055V50.17H89.8555V55ZM95.3616 55H94.6116V54.32C94.4116 54.5467 94.1582 54.7367 93.8516 54.89C93.5516 55.0433 93.2316 55.12 92.8916 55.12C91.8649 55.12 91.3516 54.6067 91.3516 53.58V50.17H92.1016V53.35C92.1016 53.75 92.1916 54.0333 92.3716 54.2C92.5582 54.3667 92.8282 54.45 93.1816 54.45C93.4616 54.45 93.7316 54.38 93.9916 54.24C94.2582 54.1 94.4649 53.9267 94.6116 53.72V50.17H95.3616V55ZM98.3894 55.12C97.5694 55.12 96.9194 54.8667 96.4394 54.36L96.8294 53.82C96.996 54.0133 97.2227 54.1767 97.5094 54.31C97.8027 54.4433 98.106 54.51 98.4194 54.51C98.7794 54.51 99.0594 54.4333 99.2594 54.28C99.4594 54.1267 99.5594 53.9267 99.5594 53.68C99.5594 53.4667 99.456 53.3 99.2494 53.18C99.0427 53.0533 98.7927 52.96 98.4994 52.9C98.2127 52.8333 97.9227 52.76 97.6294 52.68C97.336 52.5933 97.086 52.45 96.8794 52.25C96.6727 52.0433 96.5694 51.7733 96.5694 51.44C96.5694 51.0467 96.7294 50.7167 97.0494 50.45C97.376 50.1833 97.816 50.05 98.3694 50.05C99.096 50.05 99.6927 50.2833 100.159 50.75L99.8094 51.27C99.4694 50.8633 98.9894 50.66 98.3694 50.66C98.0427 50.66 97.7827 50.7333 97.5894 50.88C97.396 51.02 97.2994 51.2 97.2994 51.42C97.2994 51.6133 97.4027 51.7667 97.6094 51.88C97.816 51.9867 98.0627 52.0733 98.3494 52.14C98.6427 52.2 98.936 52.2733 99.2294 52.36C99.5227 52.4467 99.7727 52.6 99.9794 52.82C100.186 53.0333 100.289 53.3133 100.289 53.66C100.289 54.0867 100.123 54.4367 99.7894 54.71C99.456 54.9833 98.9894 55.12 98.3894 55.12ZM108.088 55H107.338V51.72C107.338 51.0533 107.041 50.72 106.448 50.72C106.208 50.72 105.968 50.7933 105.728 50.94C105.488 51.0867 105.301 51.26 105.168 51.46V55H104.418V51.72C104.418 51.0533 104.121 50.72 103.528 50.72C103.294 50.72 103.058 50.7933 102.818 50.94C102.584 51.0867 102.398 51.2633 102.258 51.47V55H101.508V50.17H102.258V50.87C102.378 50.6833 102.588 50.5 102.888 50.32C103.188 50.14 103.498 50.05 103.818 50.05C104.171 50.05 104.458 50.1333 104.678 50.3C104.898 50.4667 105.044 50.6833 105.118 50.95C105.264 50.71 105.488 50.5 105.788 50.32C106.088 50.14 106.404 50.05 106.738 50.05C107.638 50.05 108.088 50.5367 108.088 51.51V55ZM113.424 54.39C112.991 54.8767 112.414 55.12 111.694 55.12C110.974 55.12 110.394 54.8767 109.954 54.39C109.521 53.9033 109.304 53.3 109.304 52.58C109.304 51.86 109.521 51.26 109.954 50.78C110.394 50.2933 110.974 50.05 111.694 50.05C112.414 50.05 112.991 50.2933 113.424 50.78C113.864 51.26 114.084 51.86 114.084 52.58C114.084 53.3 113.864 53.9033 113.424 54.39ZM110.514 53.91C110.807 54.27 111.201 54.45 111.694 54.45C112.187 54.45 112.577 54.27 112.864 53.91C113.151 53.5433 113.294 53.1 113.294 52.58C113.294 52.06 113.151 51.62 112.864 51.26C112.577 50.9 112.187 50.72 111.694 50.72C111.201 50.72 110.807 50.9033 110.514 51.27C110.227 51.63 110.084 52.0667 110.084 52.58C110.084 53.1 110.227 53.5433 110.514 53.91ZM119.557 55H118.807V54.28C118.393 54.84 117.85 55.12 117.177 55.12C116.537 55.12 116.017 54.8933 115.617 54.44C115.223 53.98 115.027 53.3633 115.027 52.59C115.027 51.8233 115.223 51.21 115.617 50.75C116.017 50.2833 116.537 50.05 117.177 50.05C117.843 50.05 118.387 50.3333 118.807 50.9V48.33H119.557V55ZM117.357 54.45C117.65 54.45 117.93 54.3767 118.197 54.23C118.463 54.0833 118.667 53.9033 118.807 53.69V51.5C118.667 51.28 118.46 51.0967 118.187 50.95C117.92 50.7967 117.643 50.72 117.357 50.72C116.883 50.72 116.507 50.8967 116.227 51.25C115.947 51.5967 115.807 52.0433 115.807 52.59C115.807 53.1367 115.947 53.5833 116.227 53.93C116.507 54.2767 116.883 54.45 117.357 54.45ZM127.407 55H126.657V54.45C126.25 54.8967 125.717 55.12 125.057 55.12C124.61 55.12 124.217 54.9767 123.877 54.69C123.537 54.4033 123.367 54.0133 123.367 53.52C123.367 53.0133 123.533 52.6233 123.867 52.35C124.207 52.07 124.603 51.93 125.057 51.93C125.743 51.93 126.277 52.15 126.657 52.59V51.72C126.657 51.4 126.543 51.15 126.317 50.97C126.09 50.79 125.797 50.7 125.437 50.7C124.87 50.7 124.377 50.9233 123.957 51.37L123.607 50.85C124.12 50.3167 124.763 50.05 125.537 50.05C126.09 50.05 126.54 50.1833 126.887 50.45C127.233 50.7167 127.407 51.1267 127.407 51.68V55ZM125.327 54.58C125.927 54.58 126.37 54.38 126.657 53.98V53.07C126.37 52.67 125.927 52.47 125.327 52.47C124.98 52.47 124.693 52.57 124.467 52.77C124.247 52.9633 124.137 53.2167 124.137 53.53C124.137 53.8367 124.247 54.09 124.467 54.29C124.693 54.4833 124.98 54.58 125.327 54.58ZM132.92 55H132.17V54.32C131.97 54.5467 131.717 54.7367 131.41 54.89C131.11 55.0433 130.79 55.12 130.45 55.12C129.423 55.12 128.91 54.6067 128.91 53.58V50.17H129.66V53.35C129.66 53.75 129.75 54.0333 129.93 54.2C130.117 54.3667 130.387 54.45 130.74 54.45C131.02 54.45 131.29 54.38 131.55 54.24C131.817 54.1 132.023 53.9267 132.17 53.72V50.17H132.92V55ZM135.638 55.12C135.285 55.12 135.018 55.0233 134.838 54.83C134.658 54.6367 134.568 54.3567 134.568 53.99V50.83H133.768V50.17H134.568V48.85H135.318V50.17H136.298V50.83H135.318V53.83C135.318 54.0167 135.358 54.1667 135.438 54.28C135.525 54.3933 135.648 54.45 135.808 54.45C136.028 54.45 136.198 54.3833 136.318 54.25L136.538 54.81C136.318 55.0167 136.018 55.12 135.638 55.12ZM139.537 55.12C138.817 55.12 138.227 54.8867 137.767 54.42C137.307 53.9467 137.077 53.3333 137.077 52.58C137.077 51.8733 137.304 51.2767 137.757 50.79C138.211 50.2967 138.777 50.05 139.457 50.05C140.171 50.05 140.734 50.2967 141.147 50.79C141.567 51.2767 141.777 51.8933 141.777 52.64V52.83H137.867C137.901 53.3033 138.074 53.7 138.387 54.02C138.701 54.34 139.107 54.5 139.607 54.5C140.207 54.5 140.704 54.2967 141.097 53.89L141.457 54.38C140.964 54.8733 140.324 55.12 139.537 55.12ZM141.037 52.28C141.031 51.8667 140.891 51.4967 140.617 51.17C140.344 50.8367 139.954 50.67 139.447 50.67C138.967 50.67 138.587 50.8333 138.307 51.16C138.034 51.4867 137.887 51.86 137.867 52.28H141.037ZM143.714 54.94C143.607 55.0467 143.477 55.1 143.324 55.1C143.17 55.1 143.04 55.0467 142.934 54.94C142.827 54.8333 142.774 54.7033 142.774 54.55C142.774 54.3967 142.827 54.2667 142.934 54.16C143.04 54.0533 143.17 54 143.324 54C143.477 54 143.607 54.0533 143.714 54.16C143.82 54.2667 143.874 54.3967 143.874 54.55C143.874 54.7033 143.82 54.8333 143.714 54.94ZM25.61 70H24.78V63.33H27.46C28.1067 63.33 28.6167 63.5233 28.99 63.91C29.3633 64.2967 29.55 64.7733 29.55 65.34C29.55 65.9067 29.36 66.3833 28.98 66.77C28.6067 67.1567 28.1 67.35 27.46 67.35H25.61V70ZM27.36 66.61C27.7533 66.61 28.0733 66.4933 28.32 66.26C28.5667 66.02 28.69 65.7133 28.69 65.34C28.69 64.9667 28.5667 64.6633 28.32 64.43C28.0733 64.19 27.7533 64.07 27.36 64.07H25.61V66.61H27.36ZM31.3691 70H30.6191V65.17H31.3691V65.95C31.8158 65.3633 32.3525 65.07 32.9791 65.07V65.84C32.8858 65.82 32.7858 65.81 32.6791 65.81C32.4525 65.81 32.2058 65.89 31.9391 66.05C31.6725 66.21 31.4825 66.3867 31.3691 66.58V70ZM37.7599 69.39C37.3266 69.8767 36.7499 70.12 36.0299 70.12C35.3099 70.12 34.7299 69.8767 34.2899 69.39C33.8566 68.9033 33.6399 68.3 33.6399 67.58C33.6399 66.86 33.8566 66.26 34.2899 65.78C34.7299 65.2933 35.3099 65.05 36.0299 65.05C36.7499 65.05 37.3266 65.2933 37.7599 65.78C38.1999 66.26 38.4199 66.86 38.4199 67.58C38.4199 68.3 38.1999 68.9033 37.7599 69.39ZM34.8499 68.91C35.1433 69.27 35.5366 69.45 36.0299 69.45C36.5233 69.45 36.9133 69.27 37.1999 68.91C37.4866 68.5433 37.6299 68.1 37.6299 67.58C37.6299 67.06 37.4866 66.62 37.1999 66.26C36.9133 65.9 36.5233 65.72 36.0299 65.72C35.5366 65.72 35.1433 65.9033 34.8499 66.27C34.5633 66.63 34.4199 67.0667 34.4199 67.58C34.4199 68.1 34.5633 68.5433 34.8499 68.91ZM40.0126 64.48C39.8792 64.48 39.7626 64.4333 39.6626 64.34C39.5626 64.24 39.5126 64.12 39.5126 63.98C39.5126 63.84 39.5626 63.72 39.6626 63.62C39.7626 63.52 39.8792 63.47 40.0126 63.47C40.1526 63.47 40.2726 63.52 40.3726 63.62C40.4726 63.72 40.5226 63.84 40.5226 63.98C40.5226 64.12 40.4726 64.24 40.3726 64.34C40.2726 64.4333 40.1526 64.48 40.0126 64.48ZM40.3926 70H39.6426V65.17H40.3926V70ZM46.1387 70H45.3887V69.28C44.9753 69.84 44.432 70.12 43.7587 70.12C43.1187 70.12 42.5987 69.8933 42.1987 69.44C41.8053 68.98 41.6087 68.3633 41.6087 67.59C41.6087 66.8233 41.8053 66.21 42.1987 65.75C42.5987 65.2833 43.1187 65.05 43.7587 65.05C44.4253 65.05 44.9687 65.3333 45.3887 65.9V63.33H46.1387V70ZM43.9387 69.45C44.232 69.45 44.512 69.3767 44.7787 69.23C45.0453 69.0833 45.2487 68.9033 45.3887 68.69V66.5C45.2487 66.28 45.042 66.0967 44.7687 65.95C44.502 65.7967 44.2253 65.72 43.9387 65.72C43.4653 65.72 43.0887 65.8967 42.8087 66.25C42.5287 66.5967 42.3887 67.0433 42.3887 67.59C42.3887 68.1367 42.5287 68.5833 42.8087 68.93C43.0887 69.2767 43.4653 69.45 43.9387 69.45ZM49.8206 70.12C49.1006 70.12 48.5106 69.8867 48.0506 69.42C47.5906 68.9467 47.3606 68.3333 47.3606 67.58C47.3606 66.8733 47.5873 66.2767 48.0406 65.79C48.494 65.2967 49.0606 65.05 49.7406 65.05C50.454 65.05 51.0173 65.2967 51.4306 65.79C51.8506 66.2767 52.0606 66.8933 52.0606 67.64V67.83H48.1506C48.184 68.3033 48.3573 68.7 48.6706 69.02C48.984 69.34 49.3906 69.5 49.8906 69.5C50.4906 69.5 50.9873 69.2967 51.3806 68.89L51.7406 69.38C51.2473 69.8733 50.6073 70.12 49.8206 70.12ZM51.3206 67.28C51.314 66.8667 51.174 66.4967 50.9006 66.17C50.6273 65.8367 50.2373 65.67 49.7306 65.67C49.2506 65.67 48.8706 65.8333 48.5906 66.16C48.3173 66.4867 48.1706 66.86 48.1506 67.28H51.3206ZM57.2854 70H56.5354V66.84C56.5354 66.4333 56.4421 66.1467 56.2554 65.98C56.0687 65.8067 55.8021 65.72 55.4554 65.72C55.1754 65.72 54.9021 65.7933 54.6354 65.94C54.3754 66.0867 54.1721 66.2633 54.0254 66.47V70H53.2754V65.17H54.0254V65.87C54.2121 65.65 54.4621 65.46 54.7754 65.3C55.0887 65.1333 55.4121 65.05 55.7454 65.05C56.7721 65.05 57.2854 65.57 57.2854 66.61V70ZM60.0032 70.12C59.6499 70.12 59.3832 70.0233 59.2032 69.83C59.0232 69.6367 58.9332 69.3567 58.9332 68.99V65.83H58.1332V65.17H58.9332V63.85H59.6832V65.17H60.6632V65.83H59.6832V68.83C59.6832 69.0167 59.7232 69.1667 59.8032 69.28C59.8899 69.3933 60.0132 69.45 60.1732 69.45C60.3932 69.45 60.5632 69.3833 60.6832 69.25L60.9032 69.81C60.6832 70.0167 60.3832 70.12 60.0032 70.12ZM70.8808 70H70.1308V66.72C70.1308 66.0533 69.8341 65.72 69.2408 65.72C69.0008 65.72 68.7608 65.7933 68.5208 65.94C68.2808 66.0867 68.0941 66.26 67.9608 66.46V70H67.2108V66.72C67.2108 66.0533 66.9141 65.72 66.3208 65.72C66.0874 65.72 65.8508 65.7933 65.6108 65.94C65.3774 66.0867 65.1908 66.2633 65.0508 66.47V70H64.3008V65.17H65.0508V65.87C65.1708 65.6833 65.3808 65.5 65.6808 65.32C65.9808 65.14 66.2908 65.05 66.6108 65.05C66.9641 65.05 67.2508 65.1333 67.4708 65.3C67.6908 65.4667 67.8374 65.6833 67.9108 65.95C68.0574 65.71 68.2808 65.5 68.5808 65.32C68.8808 65.14 69.1974 65.05 69.5308 65.05C70.4308 65.05 70.8808 65.5367 70.8808 66.51V70ZM72.747 64.48C72.6136 64.48 72.497 64.4333 72.397 64.34C72.297 64.24 72.247 64.12 72.247 63.98C72.247 63.84 72.297 63.72 72.397 63.62C72.497 63.52 72.6136 63.47 72.747 63.47C72.887 63.47 73.007 63.52 73.107 63.62C73.207 63.72 73.257 63.84 73.257 63.98C73.257 64.12 73.207 64.24 73.107 64.34C73.007 64.4333 72.887 64.48 72.747 64.48ZM73.127 70H72.377V65.17H73.127V70ZM78.633 70H77.883V66.84C77.883 66.4333 77.7897 66.1467 77.603 65.98C77.4164 65.8067 77.1497 65.72 76.803 65.72C76.523 65.72 76.2497 65.7933 75.983 65.94C75.723 66.0867 75.5197 66.2633 75.373 66.47V70H74.623V65.17H75.373V65.87C75.5597 65.65 75.8097 65.46 76.123 65.3C76.4364 65.1333 76.7597 65.05 77.093 65.05C78.1197 65.05 78.633 65.57 78.633 66.61V70ZM80.5009 64.48C80.3675 64.48 80.2509 64.4333 80.1509 64.34C80.0509 64.24 80.0009 64.12 80.0009 63.98C80.0009 63.84 80.0509 63.72 80.1509 63.62C80.2509 63.52 80.3675 63.47 80.5009 63.47C80.6409 63.47 80.7609 63.52 80.8609 63.62C80.9609 63.72 81.0109 63.84 81.0109 63.98C81.0109 64.12 80.9609 64.24 80.8609 64.34C80.7609 64.4333 80.6409 64.48 80.5009 64.48ZM80.8809 70H80.1309V65.17H80.8809V70ZM88.957 70H88.207V66.72C88.207 66.0533 87.9103 65.72 87.317 65.72C87.077 65.72 86.837 65.7933 86.597 65.94C86.357 66.0867 86.1703 66.26 86.037 66.46V70H85.287V66.72C85.287 66.0533 84.9903 65.72 84.397 65.72C84.1636 65.72 83.927 65.7933 83.687 65.94C83.4536 66.0867 83.267 66.2633 83.127 66.47V70H82.377V65.17H83.127V65.87C83.247 65.6833 83.457 65.5 83.757 65.32C84.057 65.14 84.367 65.05 84.687 65.05C85.0403 65.05 85.327 65.1333 85.547 65.3C85.767 65.4667 85.9136 65.6833 85.987 65.95C86.1336 65.71 86.357 65.5 86.657 65.32C86.957 65.14 87.2736 65.05 87.607 65.05C88.507 65.05 88.957 65.5367 88.957 66.51V70ZM96.8013 70H96.0513V69.45C95.6446 69.8967 95.1113 70.12 94.4513 70.12C94.0046 70.12 93.6113 69.9767 93.2713 69.69C92.9313 69.4033 92.7613 69.0133 92.7613 68.52C92.7613 68.0133 92.9279 67.6233 93.2613 67.35C93.6013 67.07 93.9979 66.93 94.4513 66.93C95.1379 66.93 95.6713 67.15 96.0513 67.59V66.72C96.0513 66.4 95.9379 66.15 95.7113 65.97C95.4846 65.79 95.1913 65.7 94.8313 65.7C94.2646 65.7 93.7713 65.9233 93.3513 66.37L93.0013 65.85C93.5146 65.3167 94.1579 65.05 94.9313 65.05C95.4846 65.05 95.9346 65.1833 96.2813 65.45C96.6279 65.7167 96.8013 66.1267 96.8013 66.68V70ZM94.7213 69.58C95.3213 69.58 95.7646 69.38 96.0513 68.98V68.07C95.7646 67.67 95.3213 67.47 94.7213 67.47C94.3746 67.47 94.0879 67.57 93.8613 67.77C93.6413 67.9633 93.5312 68.2167 93.5312 68.53C93.5312 68.8367 93.6413 69.09 93.8613 69.29C94.0879 69.4833 94.3746 69.58 94.7213 69.58ZM102.555 70H101.805V69.28C101.391 69.84 100.848 70.12 100.175 70.12C99.5347 70.12 99.0147 69.8933 98.6147 69.44C98.2214 68.98 98.0247 68.3633 98.0247 67.59C98.0247 66.8233 98.2214 66.21 98.6147 65.75C99.0147 65.2833 99.5347 65.05 100.175 65.05C100.841 65.05 101.385 65.3333 101.805 65.9V63.33H102.555V70ZM100.355 69.45C100.648 69.45 100.928 69.3767 101.195 69.23C101.461 69.0833 101.665 68.9033 101.805 68.69V66.5C101.665 66.28 101.458 66.0967 101.185 65.95C100.918 65.7967 100.641 65.72 100.355 65.72C99.8814 65.72 99.5047 65.8967 99.2247 66.25C98.9447 66.5967 98.8047 67.0433 98.8047 67.59C98.8047 68.1367 98.9447 68.5833 99.2247 68.93C99.5047 69.2767 99.8814 69.45 100.355 69.45ZM108.815 70.12C108.095 70.12 107.505 69.8867 107.045 69.42C106.585 68.9467 106.355 68.3333 106.355 67.58C106.355 66.8733 106.581 66.2767 107.035 65.79C107.488 65.2967 108.055 65.05 108.735 65.05C109.448 65.05 110.011 65.2967 110.425 65.79C110.845 66.2767 111.055 66.8933 111.055 67.64V67.83H107.145C107.178 68.3033 107.351 68.7 107.665 69.02C107.978 69.34 108.385 69.5 108.885 69.5C109.485 69.5 109.981 69.2967 110.375 68.89L110.735 69.38C110.241 69.8733 109.601 70.12 108.815 70.12ZM110.315 67.28C110.308 66.8667 110.168 66.4967 109.895 66.17C109.621 65.8367 109.231 65.67 108.725 65.67C108.245 65.67 107.865 65.8333 107.585 66.16C107.311 66.4867 107.165 66.86 107.145 67.28H110.315ZM116.27 70H115.4L113.95 68.02L112.5 70H111.64L113.49 67.52L111.74 65.17H112.61L113.95 67.01L115.29 65.17H116.16L114.41 67.52L116.27 70ZM118.942 70.12C118.222 70.12 117.632 69.8867 117.172 69.42C116.712 68.9467 116.482 68.3333 116.482 67.58C116.482 66.8733 116.708 66.2767 117.162 65.79C117.615 65.2967 118.182 65.05 118.862 65.05C119.575 65.05 120.138 65.2967 120.552 65.79C120.972 66.2767 121.182 66.8933 121.182 67.64V67.83H117.272C117.305 68.3033 117.478 68.7 117.792 69.02C118.105 69.34 118.512 69.5 119.012 69.5C119.612 69.5 120.108 69.2967 120.502 68.89L120.862 69.38C120.368 69.8733 119.728 70.12 118.942 70.12ZM120.442 67.28C120.435 66.8667 120.295 66.4967 120.022 66.17C119.748 65.8367 119.358 65.67 118.852 65.67C118.372 65.67 117.992 65.8333 117.712 66.16C117.438 66.4867 117.292 66.86 117.272 67.28H120.442ZM123.146 70H122.396V65.17H123.146V65.95C123.593 65.3633 124.13 65.07 124.756 65.07V65.84C124.663 65.82 124.563 65.81 124.456 65.81C124.23 65.81 123.983 65.89 123.716 66.05C123.45 66.21 123.26 66.3867 123.146 66.58V70ZM127.827 70.12C127.114 70.12 126.534 69.88 126.087 69.4C125.641 68.9133 125.417 68.3067 125.417 67.58C125.417 66.8533 125.641 66.25 126.087 65.77C126.534 65.29 127.114 65.05 127.827 65.05C128.574 65.05 129.164 65.33 129.597 65.89L129.097 66.35C128.791 65.93 128.381 65.72 127.867 65.72C127.361 65.72 126.954 65.8933 126.647 66.24C126.347 66.5867 126.197 67.0333 126.197 67.58C126.197 68.1267 126.347 68.5767 126.647 68.93C126.954 69.2767 127.361 69.45 127.867 69.45C128.374 69.45 128.784 69.24 129.097 68.82L129.597 69.28C129.164 69.84 128.574 70.12 127.827 70.12ZM131.018 64.48C130.885 64.48 130.768 64.4333 130.668 64.34C130.568 64.24 130.518 64.12 130.518 63.98C130.518 63.84 130.568 63.72 130.668 63.62C130.768 63.52 130.885 63.47 131.018 63.47C131.158 63.47 131.278 63.52 131.378 63.62C131.478 63.72 131.528 63.84 131.528 63.98C131.528 64.12 131.478 64.24 131.378 64.34C131.278 64.4333 131.158 64.48 131.018 64.48ZM131.398 70H130.648V65.17H131.398V70ZM134.115 70.12C133.761 70.12 133.495 70.0233 133.315 69.83C133.135 69.6367 133.045 69.3567 133.045 68.99V65.83H132.245V65.17H133.045V63.85H133.795V65.17H134.775V65.83H133.795V68.83C133.795 69.0167 133.835 69.1667 133.915 69.28C134.001 69.3933 134.125 69.45 134.285 69.45C134.505 69.45 134.675 69.3833 134.795 69.25L135.015 69.81C134.795 70.0167 134.495 70.12 134.115 70.12ZM139.604 70H138.854V69.45C138.447 69.8967 137.914 70.12 137.254 70.12C136.807 70.12 136.414 69.9767 136.074 69.69C135.734 69.4033 135.564 69.0133 135.564 68.52C135.564 68.0133 135.731 67.6233 136.064 67.35C136.404 67.07 136.801 66.93 137.254 66.93C137.941 66.93 138.474 67.15 138.854 67.59V66.72C138.854 66.4 138.741 66.15 138.514 65.97C138.287 65.79 137.994 65.7 137.634 65.7C137.067 65.7 136.574 65.9233 136.154 66.37L135.804 65.85C136.317 65.3167 136.961 65.05 137.734 65.05C138.287 65.05 138.737 65.1833 139.084 65.45C139.431 65.7167 139.604 66.1267 139.604 66.68V70ZM137.524 69.58C138.124 69.58 138.567 69.38 138.854 68.98V68.07C138.567 67.67 138.124 67.47 137.524 67.47C137.177 67.47 136.891 67.57 136.664 67.77C136.444 67.9633 136.334 68.2167 136.334 68.53C136.334 68.8367 136.444 69.09 136.664 69.29C136.891 69.4833 137.177 69.58 137.524 69.58ZM142.327 70.12C141.974 70.12 141.707 70.0233 141.527 69.83C141.347 69.6367 141.257 69.3567 141.257 68.99V65.83H140.457V65.17H141.257V63.85H142.007V65.17H142.987V65.83H142.007V68.83C142.007 69.0167 142.047 69.1667 142.127 69.28C142.214 69.3933 142.337 69.45 142.497 69.45C142.717 69.45 142.887 69.3833 143.007 69.25L143.227 69.81C143.007 70.0167 142.707 70.12 142.327 70.12ZM144.417 64.48C144.284 64.48 144.167 64.4333 144.067 64.34C143.967 64.24 143.917 64.12 143.917 63.98C143.917 63.84 143.967 63.72 144.067 63.62C144.167 63.52 144.284 63.47 144.417 63.47C144.557 63.47 144.677 63.52 144.777 63.62C144.877 63.72 144.927 63.84 144.927 63.98C144.927 64.12 144.877 64.24 144.777 64.34C144.677 64.4333 144.557 64.48 144.417 64.48ZM144.797 70H144.047V65.17H144.797V70ZM150.133 69.39C149.7 69.8767 149.123 70.12 148.403 70.12C147.683 70.12 147.103 69.8767 146.663 69.39C146.23 68.9033 146.013 68.3 146.013 67.58C146.013 66.86 146.23 66.26 146.663 65.78C147.103 65.2933 147.683 65.05 148.403 65.05C149.123 65.05 149.7 65.2933 150.133 65.78C150.573 66.26 150.793 66.86 150.793 67.58C150.793 68.3 150.573 68.9033 150.133 69.39ZM147.223 68.91C147.516 69.27 147.91 69.45 148.403 69.45C148.896 69.45 149.286 69.27 149.573 68.91C149.86 68.5433 150.003 68.1 150.003 67.58C150.003 67.06 149.86 66.62 149.573 66.26C149.286 65.9 148.896 65.72 148.403 65.72C147.91 65.72 147.516 65.9033 147.223 66.27C146.936 66.63 146.793 67.0667 146.793 67.58C146.793 68.1 146.936 68.5433 147.223 68.91ZM156.026 70H155.276V66.84C155.276 66.4333 155.182 66.1467 154.996 65.98C154.809 65.8067 154.542 65.72 154.196 65.72C153.916 65.72 153.642 65.7933 153.376 65.94C153.116 66.0867 152.912 66.2633 152.766 66.47V70H152.016V65.17H152.766V65.87C152.952 65.65 153.202 65.46 153.516 65.3C153.829 65.1333 154.152 65.05 154.486 65.05C155.512 65.05 156.026 65.57 156.026 66.61V70ZM162.122 69.45C162.415 69.45 162.695 69.3767 162.962 69.23C163.235 69.0767 163.435 68.89 163.562 68.67V66.49C163.435 66.2767 163.235 66.0967 162.962 65.95C162.695 65.7967 162.415 65.72 162.122 65.72C161.648 65.72 161.272 65.8933 160.992 66.24C160.718 66.5867 160.582 67.0333 160.582 67.58C160.582 68.1267 160.718 68.5767 160.992 68.93C161.272 69.2767 161.648 69.45 162.122 69.45ZM161.942 70.12C161.302 70.12 160.782 69.89 160.382 69.43C159.988 68.97 159.792 68.3533 159.792 67.58C159.792 66.8067 159.988 66.1933 160.382 65.74C160.782 65.28 161.302 65.05 161.942 65.05C162.275 65.05 162.585 65.1267 162.872 65.28C163.158 65.4333 163.388 65.6367 163.562 65.89V65.17H164.312V71.84H163.562V69.27C163.155 69.8367 162.615 70.12 161.942 70.12ZM169.834 70H169.084V69.32C168.884 69.5467 168.631 69.7367 168.324 69.89C168.024 70.0433 167.704 70.12 167.364 70.12C166.338 70.12 165.824 69.6067 165.824 68.58V65.17H166.574V68.35C166.574 68.75 166.664 69.0333 166.844 69.2C167.031 69.3667 167.301 69.45 167.654 69.45C167.934 69.45 168.204 69.38 168.464 69.24C168.731 69.1 168.938 68.9267 169.084 68.72V65.17H169.834V70ZM171.702 64.48C171.569 64.48 171.452 64.4333 171.352 64.34C171.252 64.24 171.202 64.12 171.202 63.98C171.202 63.84 171.252 63.72 171.352 63.62C171.452 63.52 171.569 63.47 171.702 63.47C171.842 63.47 171.962 63.52 172.062 63.62C172.162 63.72 172.212 63.84 172.212 63.98C172.212 64.12 172.162 64.24 172.062 64.34C171.962 64.4333 171.842 64.48 171.702 64.48ZM172.082 70H171.332V65.17H172.082V70ZM174.368 69.94C174.261 70.0467 174.131 70.1 173.978 70.1C173.825 70.1 173.695 70.0467 173.588 69.94C173.481 69.8333 173.428 69.7033 173.428 69.55C173.428 69.3967 173.481 69.2667 173.588 69.16C173.695 69.0533 173.825 69 173.978 69C174.131 69 174.261 69.0533 174.368 69.16C174.475 69.2667 174.528 69.3967 174.528 69.55C174.528 69.7033 174.475 69.8333 174.368 69.94ZM176.673 69.94C176.566 70.0467 176.436 70.1 176.283 70.1C176.129 70.1 175.999 70.0467 175.893 69.94C175.786 69.8333 175.733 69.7033 175.733 69.55C175.733 69.3967 175.786 69.2667 175.893 69.16C175.999 69.0533 176.129 69 176.283 69C176.436 69 176.566 69.0533 176.673 69.16C176.779 69.2667 176.833 69.3967 176.833 69.55C176.833 69.7033 176.779 69.8333 176.673 69.94ZM178.978 69.94C178.871 70.0467 178.741 70.1 178.588 70.1C178.434 70.1 178.304 70.0467 178.198 69.94C178.091 69.8333 178.038 69.7033 178.038 69.55C178.038 69.3967 178.091 69.2667 178.198 69.16C178.304 69.0533 178.434 69 178.588 69C178.741 69 178.871 69.0533 178.978 69.16C179.084 69.2667 179.138 69.3967 179.138 69.55C179.138 69.7033 179.084 69.8333 178.978 69.94Z" fill="#A5A9C0"/>
<defs>
<filter id="filter0_ddd" x="0.742249" y="0" width="200.258" height="100.393" filterUnits="userSpaceOnUse" color-interpolation-filters="sRGB">
<feFlood flood-opacity="0" result="BackgroundImageFix"/>
<feColorMatrix in="SourceAlpha" type="matrix" values="0 0 0 0 0 0 0 0 0 0 0 0 0 0 0 0 0 0 127 0"/>
<feOffset/>
<feGaussianBlur stdDeviation="0.5"/>
<feColorMatrix type="matrix" values="0 0 0 0 0 0 0 0 0 0 0 0 0 0 0 0 0 0 0.04 0"/>
<feBlend mode="normal" in2="BackgroundImageFix" result="effect1_dropShadow"/>
<feColorMatrix in="SourceAlpha" type="matrix" values="0 0 0 0 0 0 0 0 0 0 0 0 0 0 0 0 0 0 127 0"/>
<feOffset/>
<feGaussianBlur stdDeviation="1"/>
<feColorMatrix type="matrix" values="0 0 0 0 0 0 0 0 0 0 0 0 0 0 0 0 0 0 0.06 0"/>
<feBlend mode="normal" in2="effect1_dropShadow" result="effect2_dropShadow"/>
<feColorMatrix in="SourceAlpha" type="matrix" values="0 0 0 0 0 0 0 0 0 0 0 0 0 0 0 0 0 0 127 0"/>
<feOffset dy="4"/>
<feGaussianBlur stdDeviation="4"/>
<feColorMatrix type="matrix" values="0 0 0 0 0 0 0 0 0 0 0 0 0 0 0 0 0 0 0.04 0"/>
<feBlend mode="normal" in2="effect2_dropShadow" result="effect3_dropShadow"/>
<feBlend mode="normal" in="SourceGraphic" in2="effect3_dropShadow" result="shape"/>
</filter>
</defs>
</svg>
